<?xml version="1.0" encoding="UTF-8" standalone="no"?>
<!-- Created with Inkscape (http://www.inkscape.org/) -->

<svg
   version="1.1"
   id="svg2"
   xml:space="preserve"
   width="344.44812"
   height="242.256"
   viewBox="0 0 344.44812 242.256"
   xmlns:xlink="http://www.w3.org/1999/xlink"
   xmlns="http://www.w3.org/2000/svg"
   xmlns:svg="http://www.w3.org/2000/svg"><defs
     id="defs6"><clipPath
       clipPathUnits="userSpaceOnUse"
       id="clipPath112"><path
         d="m 4831.76,2162.02 c 133.36,0 133.36,240 200,240 66.68,0 66.68,-240 200,-240"
         id="path110" /></clipPath><linearGradient
       x1="90"
       y1="152.362"
       x2="90"
       y2="187.362"
       gradientUnits="userSpaceOnUse"
       gradientTransform="matrix(6.66667,0,0,-8,4431.78,3620.9)"
       spreadMethod="pad"
       id="linearGradient118"><stop
         style="stop-opacity:1;stop-color:#373737"
         offset="0"
         id="stop114" /><stop
         style="stop-opacity:1;stop-color:#ffffff"
         offset="1"
         id="stop116" /></linearGradient><clipPath
       clipPathUnits="userSpaceOnUse"
       id="clipPath128"><path
         d="m 2888.09,3233.93 c 133.36,0 133.36,240 200,240 66.68,0 66.68,-240 200,-240"
         id="path126" /></clipPath><linearGradient
       x1="90"
       y1="152.362"
       x2="90"
       y2="187.362"
       gradientUnits="userSpaceOnUse"
       gradientTransform="matrix(6.66667,0,0,-8,2488.09,4692.81)"
       spreadMethod="pad"
       id="linearGradient134"><stop
         style="stop-opacity:1;stop-color:#efefef"
         offset="0"
         id="stop130" /><stop
         style="stop-opacity:1;stop-color:#ffffff"
         offset="1"
         id="stop132" /></linearGradient><clipPath
       clipPathUnits="userSpaceOnUse"
       id="clipPath144"><path
         d="m 2968.09,3233.93 c 133.36,0 133.36,240 200,240 66.68,0 66.68,-240 200,-240"
         id="path142" /></clipPath><linearGradient
       x1="90"
       y1="152.362"
       x2="90"
       y2="187.362"
       gradientUnits="userSpaceOnUse"
       gradientTransform="matrix(6.66667,0,0,-8,2568.09,4692.81)"
       spreadMethod="pad"
       id="linearGradient150"><stop
         style="stop-opacity:1;stop-color:#b6b6b6"
         offset="0"
         id="stop146" /><stop
         style="stop-opacity:1;stop-color:#ffffff"
         offset="1"
         id="stop148" /></linearGradient><clipPath
       clipPathUnits="userSpaceOnUse"
       id="clipPath160"><path
         d="m 3048.09,3233.93 c 133.36,0 133.36,240 200,240 66.68,0 66.68,-240 200,-240"
         id="path158" /></clipPath><linearGradient
       x1="90"
       y1="152.362"
       x2="90"
       y2="187.362"
       gradientUnits="userSpaceOnUse"
       gradientTransform="matrix(6.66667,0,0,-8,2648.09,4692.81)"
       spreadMethod="pad"
       id="linearGradient166"><stop
         style="stop-opacity:1;stop-color:#373737"
         offset="0"
         id="stop162" /><stop
         style="stop-opacity:1;stop-color:#ffffff"
         offset="1"
         id="stop164" /></linearGradient><clipPath
       clipPathUnits="userSpaceOnUse"
       id="clipPath190"><path
         d="m 105.469,3253.42 c 133.32,0 133.32,240 200,240 66.64,0 66.64,-240 200,-240"
         id="path188" /></clipPath><linearGradient
       x1="90"
       y1="152.362"
       x2="90"
       y2="187.362"
       gradientUnits="userSpaceOnUse"
       gradientTransform="matrix(6.66667,0,0,-8,-294.545,4712.33)"
       spreadMethod="pad"
       id="linearGradient196"><stop
         style="stop-opacity:1;stop-color:#efefef"
         offset="0"
         id="stop192" /><stop
         style="stop-opacity:1;stop-color:#ffffff"
         offset="1"
         id="stop194" /></linearGradient><clipPath
       clipPathUnits="userSpaceOnUse"
       id="clipPath206"><path
         d="m 185.469,3253.42 c 133.32,0 133.32,240 200,240 66.64,0 66.64,-240 200,-240"
         id="path204" /></clipPath><linearGradient
       x1="90"
       y1="152.362"
       x2="90"
       y2="187.362"
       gradientUnits="userSpaceOnUse"
       gradientTransform="matrix(6.66667,0,0,-8,-214.545,4712.33)"
       spreadMethod="pad"
       id="linearGradient212"><stop
         style="stop-opacity:1;stop-color:#b6b6b6"
         offset="0"
         id="stop208" /><stop
         style="stop-opacity:1;stop-color:#ffffff"
         offset="1"
         id="stop210" /></linearGradient><clipPath
       clipPathUnits="userSpaceOnUse"
       id="clipPath222"><path
         d="m 265.469,3253.42 c 133.32,0 133.32,240 200,240 66.64,0 66.64,-240 200,-240"
         id="path220" /></clipPath><linearGradient
       x1="90"
       y1="152.362"
       x2="90"
       y2="187.362"
       gradientUnits="userSpaceOnUse"
       gradientTransform="matrix(6.66667,0,0,-8,-134.545,4712.33)"
       spreadMethod="pad"
       id="linearGradient228"><stop
         style="stop-opacity:1;stop-color:#373737"
         offset="0"
         id="stop224" /><stop
         style="stop-opacity:1;stop-color:#ffffff"
         offset="1"
         id="stop226" /></linearGradient><clipPath
       clipPathUnits="userSpaceOnUse"
       id="clipPath238"><path
         d="m 2165,3914.91 c 133.32,0 133.32,240 200,240 66.68,0 66.68,-240 200,-240"
         id="path236" /></clipPath><linearGradient
       x1="90"
       y1="152.362"
       x2="90"
       y2="187.362"
       gradientUnits="userSpaceOnUse"
       gradientTransform="matrix(6.66667,0,0,-8,1765,5373.8)"
       spreadMethod="pad"
       id="linearGradient244"><stop
         style="stop-opacity:1;stop-color:#373737"
         offset="0"
         id="stop240" /><stop
         style="stop-opacity:1;stop-color:#ffffff"
         offset="1"
         id="stop242" /></linearGradient><clipPath
       clipPathUnits="userSpaceOnUse"
       id="clipPath442"><path
         d="m 2341.02,243.27 c 133.32,0 133.32,240 200,240 66.64,0 66.64,-240 200,-240"
         id="path440" /></clipPath><linearGradient
       x1="90"
       y1="152.362"
       x2="90"
       y2="187.362"
       gradientUnits="userSpaceOnUse"
       gradientTransform="matrix(6.66667,0,0,-8,1941,1702.14)"
       spreadMethod="pad"
       id="linearGradient448"><stop
         style="stop-opacity:1;stop-color:#373737"
         offset="0"
         id="stop444" /><stop
         style="stop-opacity:1;stop-color:#ffffff"
         offset="1"
         id="stop446" /></linearGradient><clipPath
       clipPathUnits="userSpaceOnUse"
       id="clipPath458"><path
         d="m 2656.64,1642.8 c -133.32,0 -133.32,240 -200,240 -66.64,0 -66.64,-240 -200,-240"
         id="path456" /></clipPath><linearGradient
       x1="90"
       y1="152.362"
       x2="90"
       y2="187.362"
       gradientUnits="userSpaceOnUse"
       gradientTransform="matrix(-6.66667,0,0,-8,3056.66,3101.68)"
       spreadMethod="pad"
       id="linearGradient464"><stop
         style="stop-opacity:1;stop-color:#efefef"
         offset="0"
         id="stop460" /><stop
         style="stop-opacity:1;stop-color:#ffffff"
         offset="1"
         id="stop462" /></linearGradient><clipPath
       clipPathUnits="userSpaceOnUse"
       id="clipPath474"><path
         d="m 2576.64,1642.8 c -133.32,0 -133.32,240 -200,240 -66.64,0 -66.64,-240 -200,-240"
         id="path472" /></clipPath><linearGradient
       x1="90"
       y1="152.362"
       x2="90"
       y2="187.362"
       gradientUnits="userSpaceOnUse"
       gradientTransform="matrix(-6.66667,0,0,-8,2976.66,3101.68)"
       spreadMethod="pad"
       id="linearGradient480"><stop
         style="stop-opacity:1;stop-color:#b6b6b6"
         offset="0"
         id="stop476" /><stop
         style="stop-opacity:1;stop-color:#ffffff"
         offset="1"
         id="stop478" /></linearGradient><clipPath
       clipPathUnits="userSpaceOnUse"
       id="clipPath490"><path
         d="m 2496.64,1642.8 c -133.32,0 -133.32,240 -200,240 -66.64,0 -66.64,-240 -200,-240"
         id="path488" /></clipPath><linearGradient
       x1="90"
       y1="152.362"
       x2="90"
       y2="187.362"
       gradientUnits="userSpaceOnUse"
       gradientTransform="matrix(-6.66667,0,0,-8,2896.66,3101.68)"
       spreadMethod="pad"
       id="linearGradient496"><stop
         style="stop-opacity:1;stop-color:#373737"
         offset="0"
         id="stop492" /><stop
         style="stop-opacity:1;stop-color:#ffffff"
         offset="1"
         id="stop494" /></linearGradient><clipPath
       clipPathUnits="userSpaceOnUse"
       id="clipPath608"><path
         d="m 3031.17,925.141 c 133.32,0 133.32,239.999 200,239.999 66.64,0 66.64,-239.999 200,-239.999"
         id="path606" /></clipPath><linearGradient
       x1="90"
       y1="152.362"
       x2="90"
       y2="187.362"
       gradientUnits="userSpaceOnUse"
       gradientTransform="matrix(6.66667,0,0,-8,2631.16,2384.04)"
       spreadMethod="pad"
       id="linearGradient614"><stop
         style="stop-opacity:1;stop-color:#373737"
         offset="0"
         id="stop610" /><stop
         style="stop-opacity:1;stop-color:#ffffff"
         offset="1"
         id="stop612" /></linearGradient><clipPath
       clipPathUnits="userSpaceOnUse"
       id="clipPath624"><path
         d="m 5348.98,1612.8 c -133.32,0 -133.32,240 -200,240 -66.64,0 -66.64,-240 -200,-240"
         id="path622" /></clipPath><linearGradient
       x1="90"
       y1="152.362"
       x2="90"
       y2="187.362"
       gradientUnits="userSpaceOnUse"
       gradientTransform="matrix(-6.66667,0,0,-8,5749,3071.69)"
       spreadMethod="pad"
       id="linearGradient630"><stop
         style="stop-opacity:1;stop-color:#efefef"
         offset="0"
         id="stop626" /><stop
         style="stop-opacity:1;stop-color:#ffffff"
         offset="1"
         id="stop628" /></linearGradient><clipPath
       clipPathUnits="userSpaceOnUse"
       id="clipPath640"><path
         d="m 5268.98,1612.8 c -133.32,0 -133.32,240 -200,240 -66.64,0 -66.64,-240 -200,-240"
         id="path638" /></clipPath><linearGradient
       x1="90"
       y1="152.362"
       x2="90"
       y2="187.362"
       gradientUnits="userSpaceOnUse"
       gradientTransform="matrix(-6.66667,0,0,-8,5669,3071.69)"
       spreadMethod="pad"
       id="linearGradient646"><stop
         style="stop-opacity:1;stop-color:#b6b6b6"
         offset="0"
         id="stop642" /><stop
         style="stop-opacity:1;stop-color:#ffffff"
         offset="1"
         id="stop644" /></linearGradient><clipPath
       clipPathUnits="userSpaceOnUse"
       id="clipPath656"><path
         d="m 5188.98,1612.8 c -133.32,0 -133.32,240 -200,240 -66.64,0 -66.64,-240 -200,-240"
         id="path654" /></clipPath><linearGradient
       x1="90"
       y1="152.362"
       x2="90"
       y2="187.362"
       gradientUnits="userSpaceOnUse"
       gradientTransform="matrix(-6.66667,0,0,-8,5589,3071.69)"
       spreadMethod="pad"
       id="linearGradient662"><stop
         style="stop-opacity:1;stop-color:#373737"
         offset="0"
         id="stop658" /><stop
         style="stop-opacity:1;stop-color:#ffffff"
         offset="1"
         id="stop660" /></linearGradient><clipPath
       clipPathUnits="userSpaceOnUse"
       id="clipPath806"><path
         d="m 870,3291.94 h 1130 v 610 H 870 Z"
         id="path804" /></clipPath><clipPath
       clipPathUnits="userSpaceOnUse"
       id="clipPath818"><path
         d="m 3620,2371.94 h 1120 v 610 H 3620 Z"
         id="path816" /></clipPath><clipPath
       clipPathUnits="userSpaceOnUse"
       id="clipPath830"><path
         d="m 3580,1351.94 h 1210 v 130 H 3580 Z"
         id="path828" /></clipPath><clipPath
       clipPathUnits="userSpaceOnUse"
       id="clipPath842"><path
         d="m 2210,961.941 h 390 v 390 h -390 z"
         id="path840" /></clipPath><clipPath
       clipPathUnits="userSpaceOnUse"
       id="clipPath854"><path
         d="m 3580,961.941 h 1210 v 390 H 3580 Z"
         id="path852" /></clipPath><clipPath
       clipPathUnits="userSpaceOnUse"
       id="clipPath866"><path
         d="m 2210,521.941 h 390 v 440 h -390 z"
         id="path864" /></clipPath><linearGradient
       xlink:href="#linearGradient662"
       id="linearGradient3740"
       x1="-74.970261"
       y1="490.53015"
       x2="89.599823"
       y2="583.94281"
       gradientUnits="userSpaceOnUse"
       gradientTransform="translate(132.13275,-189.55788)" /></defs><g
     id="g8"
     transform="matrix(1.3333333,0,0,-1.3333333,-14.062533,553.98799)"><g
       id="g184"
       transform="scale(0.1)"><g
         id="g186"
         clip-path="url(#clipPath190)"><path
           d="m 105.469,3253.42 c 133.32,0 133.32,240 200,240 66.64,0 66.64,-240 200,-240"
           style="fill:url(#linearGradient196);fill-opacity:1;fill-rule:nonzero;stroke:none"
           id="path198" /></g></g><g
       id="g200"
       transform="scale(0.1)"><g
         id="g202"
         clip-path="url(#clipPath206)"><path
           d="m 185.469,3253.42 c 133.32,0 133.32,240 200,240 66.64,0 66.64,-240 200,-240"
           style="fill:url(#linearGradient212);fill-opacity:1;fill-rule:nonzero;stroke:none"
           id="path214" /></g></g><g
       id="g216"
       transform="scale(0.1)"><g
         id="g218"
         clip-path="url(#clipPath222)"><path
           d="m 265.469,3253.42 c 133.32,0 133.32,240 200,240 66.64,0 66.64,-240 200,-240"
           style="fill:url(#linearGradient228);fill-opacity:1;fill-rule:nonzero;stroke:none"
           id="path230" /></g></g><g
       id="g232"
       transform="scale(0.1)"><g
         id="g234"
         clip-path="url(#clipPath238)"><path
           d="m 2165,3914.91 c 133.32,0 133.32,240 200,240 66.68,0 66.68,-240 200,-240"
           style="fill:url(#linearGradient244);fill-opacity:1;fill-rule:nonzero;stroke:none"
           id="path246" /></g></g><path
       d="M 140.508,311.671 167.016,295.1 v 33.137 z"
       style="fill:none;stroke:#000000;stroke-width:3.31349;stroke-linecap:butt;stroke-linejoin:miter;stroke-miterlimit:4;stroke-dasharray:none;stroke-opacity:1"
       id="path248" /><path
       d="M 46.0738,311.671 H 138.852"
       style="fill:none;stroke:#000000;stroke-width:3.31349;stroke-linecap:butt;stroke-linejoin:miter;stroke-miterlimit:4;stroke-dasharray:none;stroke-opacity:1"
       id="path250" /><path
       d="m 54.027,311.67 c 0,-3.66 -2.968,-6.629 -6.629,-6.629 -3.6601,0 -6.625,2.969 -6.625,6.629 0,3.66 2.9649,6.625 6.625,6.625 3.661,0 6.629,-2.965 6.629,-6.625"
       style="fill:#ffc342;fill-opacity:1;fill-rule:nonzero;stroke:none;stroke-width:0.1"
       id="path252" /><path
       d="m 54.027,311.671 c 0,-3.661 -2.968,-6.629 -6.629,-6.629 -3.6601,0 -6.625,2.968 -6.625,6.629 0,3.66 2.9649,6.625 6.625,6.625 3.661,0 6.629,-2.965 6.629,-6.625 z"
       style="fill:none;stroke:#000000;stroke-width:1.65675;stroke-linecap:butt;stroke-linejoin:miter;stroke-miterlimit:4;stroke-dasharray:none;stroke-opacity:1"
       id="path254" /><path
       d="m 77.223,311.67 c 0,-3.66 -2.9691,-6.629 -6.6289,-6.629 -3.6601,0 -6.625,2.969 -6.625,6.629 0,3.66 2.9649,6.625 6.625,6.625 3.6598,0 6.6289,-2.965 6.6289,-6.625"
       style="fill:#ffc342;fill-opacity:1;fill-rule:nonzero;stroke:none;stroke-width:0.1"
       id="path256" /><path
       d="m 77.223,311.671 c 0,-3.661 -2.9691,-6.629 -6.6289,-6.629 -3.6601,0 -6.625,2.968 -6.625,6.629 0,3.66 2.9649,6.625 6.625,6.625 3.6598,0 6.6289,-2.965 6.6289,-6.625 z"
       style="fill:none;stroke:#000000;stroke-width:1.65675;stroke-linecap:butt;stroke-linejoin:miter;stroke-miterlimit:4;stroke-dasharray:none;stroke-opacity:1"
       id="path258" /><path
       d="m 100.414,311.67 c 0,-3.66 -2.9652,-6.629 -6.6249,-6.629 -3.6602,0 -6.6289,2.969 -6.6289,6.629 0,3.66 2.9687,6.625 6.6289,6.625 3.6597,0 6.6249,-2.965 6.6249,-6.625"
       style="fill:#ffc342;fill-opacity:1;fill-rule:nonzero;stroke:none;stroke-width:0.1"
       id="path260" /><path
       d="m 100.414,311.671 c 0,-3.661 -2.9652,-6.629 -6.6249,-6.629 -3.6602,0 -6.6289,2.968 -6.6289,6.629 0,3.66 2.9687,6.625 6.6289,6.625 3.6597,0 6.6249,-2.965 6.6249,-6.625 z"
       style="fill:none;stroke:#000000;stroke-width:1.65675;stroke-linecap:butt;stroke-linejoin:miter;stroke-miterlimit:4;stroke-dasharray:none;stroke-opacity:1"
       id="path262" /><path
       d="m 123.609,311.67 c 0,-3.66 -2.964,-6.629 -6.625,-6.629 -3.66,0 -6.629,2.969 -6.629,6.629 0,3.66 2.969,6.625 6.629,6.625 3.661,0 6.625,-2.965 6.625,-6.625"
       style="fill:#ffc342;fill-opacity:1;fill-rule:nonzero;stroke:none;stroke-width:0.1"
       id="path264" /><path
       d="m 123.609,311.671 c 0,-3.661 -2.964,-6.629 -6.625,-6.629 -3.66,0 -6.629,2.968 -6.629,6.629 0,3.66 2.969,6.625 6.629,6.625 3.661,0 6.625,-2.965 6.625,-6.625 z"
       style="fill:none;stroke:#000000;stroke-width:1.65675;stroke-linecap:butt;stroke-linejoin:miter;stroke-miterlimit:4;stroke-dasharray:none;stroke-opacity:1"
       id="path266" /><path
       d="m 146.805,311.67 c 0,-3.66 -2.969,-6.629 -6.629,-6.629 -3.66,0 -6.625,2.969 -6.625,6.629 0,3.66 2.965,6.625 6.625,6.625 3.66,0 6.629,-2.965 6.629,-6.625"
       style="fill:#ffc342;fill-opacity:1;fill-rule:nonzero;stroke:none;stroke-width:0.1"
       id="path268" /><path
       d="m 146.805,311.671 c 0,-3.661 -2.969,-6.629 -6.629,-6.629 -3.66,0 -6.625,2.968 -6.625,6.629 0,3.66 2.965,6.625 6.625,6.625 3.66,0 6.629,-2.965 6.629,-6.625 z"
       style="fill:none;stroke:#000000;stroke-width:1.65675;stroke-linecap:butt;stroke-linejoin:miter;stroke-miterlimit:4;stroke-dasharray:none;stroke-opacity:1"
       id="path270" /><path
       d="m 167.016,295.1 v 33.137"
       style="fill:none;stroke:#ff0000;stroke-width:3.31349;stroke-linecap:butt;stroke-linejoin:miter;stroke-miterlimit:4;stroke-dasharray:none;stroke-opacity:1"
       id="path272" /><path
       d="m 164.484,327.3 76.38,52.664"
       style="fill:none;stroke:#000000;stroke-width:3.31349;stroke-linecap:butt;stroke-linejoin:miter;stroke-miterlimit:4;stroke-dasharray:none;stroke-opacity:1"
       id="path274" /><path
       d="m 171.031,331.811 c -2.078,3.016 -6.207,3.773 -9.219,1.695 -3.011,-2.078 -3.769,-6.203 -1.695,-9.219 2.078,-3.011 6.207,-3.769 9.219,-1.691 3.016,2.078 3.773,6.203 1.695,9.215"
       style="fill:#ffc342;fill-opacity:1;fill-rule:nonzero;stroke:none;stroke-width:0.1"
       id="path276" /><path
       d="m 171.031,331.811 c -2.077,3.016 -6.207,3.773 -9.218,1.695 -3.012,-2.078 -3.77,-6.202 -1.695,-9.218 2.077,-3.012 6.206,-3.77 9.217,-1.692 3.016,2.078 3.775,6.203 1.696,9.215 z"
       style="fill:none;stroke:#000000;stroke-width:1.65675;stroke-linecap:butt;stroke-linejoin:miter;stroke-miterlimit:4;stroke-dasharray:none;stroke-opacity:1"
       id="path278" /><path
       d="m 190.125,344.979 c -2.078,3.012 -6.203,3.773 -9.219,1.695 -3.011,-2.078 -3.769,-6.207 -1.691,-9.219 2.078,-3.011 6.203,-3.773 9.219,-1.695 3.011,2.078 3.769,6.207 1.691,9.219"
       style="fill:#ffc342;fill-opacity:1;fill-rule:nonzero;stroke:none;stroke-width:0.1"
       id="path280" /><path
       d="m 190.125,344.98 c -2.078,3.011 -6.203,3.772 -9.219,1.695 -3.012,-2.079 -3.77,-6.207 -1.691,-9.22 2.078,-3.011 6.203,-3.773 9.218,-1.695 3.012,2.078 3.771,6.207 1.692,9.22 z"
       style="fill:none;stroke:#000000;stroke-width:1.65675;stroke-linecap:butt;stroke-linejoin:miter;stroke-miterlimit:4;stroke-dasharray:none;stroke-opacity:1"
       id="path282" /><path
       d="m 209.223,358.147 c -2.078,3.012 -6.207,3.769 -9.219,1.691 -3.016,-2.078 -3.774,-6.203 -1.695,-9.215 2.078,-3.015 6.207,-3.773 9.218,-1.695 3.012,2.078 3.77,6.203 1.696,9.219"
       style="fill:#ffc342;fill-opacity:1;fill-rule:nonzero;stroke:none;stroke-width:0.1"
       id="path284" /><path
       d="m 209.223,358.146 c -2.079,3.013 -6.207,3.77 -9.219,1.693 -3.016,-2.079 -3.774,-6.204 -1.696,-9.216 2.078,-3.015 6.208,-3.773 9.22,-1.695 3.011,2.077 3.769,6.203 1.695,9.218 z"
       style="fill:none;stroke:#000000;stroke-width:1.65675;stroke-linecap:butt;stroke-linejoin:miter;stroke-miterlimit:4;stroke-dasharray:none;stroke-opacity:1"
       id="path286" /><path
       d="m 228.316,371.311 c -2.078,3.016 -6.203,3.773 -9.218,1.695 -3.012,-2.078 -3.77,-6.203 -1.692,-9.219 2.074,-3.011 6.203,-3.769 9.215,-1.691 3.016,2.074 3.774,6.203 1.695,9.215"
       style="fill:#ffc342;fill-opacity:1;fill-rule:nonzero;stroke:none;stroke-width:0.1"
       id="path288" /><path
       d="m 228.316,371.311 c -2.078,3.015 -6.203,3.773 -9.219,1.695 -3.011,-2.077 -3.768,-6.202 -1.691,-9.218 2.074,-3.013 6.203,-3.77 9.215,-1.692 3.015,2.075 3.773,6.203 1.695,9.215 z"
       style="fill:none;stroke:#000000;stroke-width:1.65675;stroke-linecap:butt;stroke-linejoin:miter;stroke-miterlimit:4;stroke-dasharray:none;stroke-opacity:1"
       id="path290" /><path
       d="m 247.41,384.479 c -2.078,3.012 -6.203,3.769 -9.215,1.695 -3.015,-2.078 -3.773,-6.207 -1.695,-9.219 2.078,-3.015 6.203,-3.773 9.219,-1.695 3.011,2.078 3.769,6.207 1.691,9.219"
       style="fill:#ffc342;fill-opacity:1;fill-rule:nonzero;stroke:none;stroke-width:0.1"
       id="path292" /><path
       d="m 247.41,384.479 c -2.078,3.011 -6.203,3.77 -9.214,1.695 -3.016,-2.078 -3.774,-6.206 -1.696,-9.218 2.079,-3.017 6.203,-3.774 9.22,-1.696 3.011,2.078 3.768,6.208 1.69,9.219 z"
       style="fill:none;stroke:#000000;stroke-width:1.65675;stroke-linecap:butt;stroke-linejoin:miter;stroke-miterlimit:4;stroke-dasharray:none;stroke-opacity:1"
       id="path294" /><path
       d="m 166.781,295.808 76.379,-52.67"
       style="fill:none;stroke:#000000;stroke-width:3.31349;stroke-linecap:butt;stroke-linejoin:miter;stroke-miterlimit:4;stroke-dasharray:none;stroke-opacity:1"
       id="path296" /><path
       d="m 173.328,291.291 c -2.078,-3.011 -6.207,-3.769 -9.219,-1.695 -3.011,2.078 -3.769,6.207 -1.695,9.219 2.078,3.015 6.207,3.773 9.219,1.695 3.012,-2.078 3.773,-6.207 1.695,-9.219"
       style="fill:#ffc342;fill-opacity:1;fill-rule:nonzero;stroke:none;stroke-width:0.1"
       id="path298" /><path
       d="m 173.329,291.292 c -2.079,-3.013 -6.208,-3.77 -9.22,-1.696 -3.012,2.078 -3.769,6.208 -1.695,9.218 2.078,3.016 6.207,3.774 9.219,1.695 3.011,-2.077 3.774,-6.206 1.696,-9.217 z"
       style="fill:none;stroke:#000000;stroke-width:1.65675;stroke-linecap:butt;stroke-linejoin:miter;stroke-miterlimit:4;stroke-dasharray:none;stroke-opacity:1"
       id="path300" /><path
       d="m 192.422,278.123 c -2.078,-3.011 -6.203,-3.769 -9.219,-1.691 -3.012,2.078 -3.769,6.203 -1.691,9.219 2.078,3.011 6.203,3.769 9.215,1.691 3.015,-2.078 3.773,-6.203 1.695,-9.219"
       style="fill:#ffc342;fill-opacity:1;fill-rule:nonzero;stroke:none;stroke-width:0.1"
       id="path302" /><path
       d="m 192.422,278.123 c -2.077,-3.011 -6.203,-3.769 -9.219,-1.691 -3.011,2.077 -3.769,6.203 -1.692,9.219 2.078,3.012 6.204,3.77 9.215,1.692 3.016,-2.078 3.774,-6.204 1.696,-9.22 z"
       style="fill:none;stroke:#000000;stroke-width:1.65675;stroke-linecap:butt;stroke-linejoin:miter;stroke-miterlimit:4;stroke-dasharray:none;stroke-opacity:1"
       id="path304" /><path
       d="m 211.516,264.959 c -2.075,-3.015 -6.204,-3.773 -9.215,-1.695 -3.016,2.078 -3.774,6.207 -1.696,9.219 2.079,3.012 6.204,3.769 9.219,1.695 3.012,-2.078 3.77,-6.207 1.692,-9.219"
       style="fill:#ffc342;fill-opacity:1;fill-rule:nonzero;stroke:none;stroke-width:0.1"
       id="path306" /><path
       d="m 211.516,264.959 c -2.075,-3.015 -6.203,-3.773 -9.215,-1.694 -3.016,2.078 -3.774,6.206 -1.696,9.217 2.079,3.013 6.204,3.77 9.219,1.697 3.013,-2.079 3.77,-6.208 1.692,-9.22 z"
       style="fill:none;stroke:#000000;stroke-width:1.65675;stroke-linecap:butt;stroke-linejoin:miter;stroke-miterlimit:4;stroke-dasharray:none;stroke-opacity:1"
       id="path308" /><path
       d="m 230.613,251.791 c -2.078,-3.011 -6.207,-3.769 -9.218,-1.691 -3.012,2.074 -3.77,6.203 -1.696,9.215 2.078,3.015 6.207,3.773 9.219,1.695 3.016,-2.078 3.773,-6.203 1.695,-9.219"
       style="fill:#ffc342;fill-opacity:1;fill-rule:nonzero;stroke:none;stroke-width:0.1"
       id="path310" /><path
       d="m 230.613,251.791 c -2.078,-3.011 -6.206,-3.769 -9.218,-1.691 -3.012,2.074 -3.77,6.203 -1.696,9.215 2.078,3.016 6.208,3.773 9.219,1.695 3.016,-2.078 3.773,-6.203 1.695,-9.219 z"
       style="fill:none;stroke:#000000;stroke-width:1.65675;stroke-linecap:butt;stroke-linejoin:miter;stroke-miterlimit:4;stroke-dasharray:none;stroke-opacity:1"
       id="path312" /><path
       d="m 249.707,238.627 c -2.078,-3.015 -6.203,-3.773 -9.219,-1.695 -3.011,2.078 -3.769,6.203 -1.691,9.219 2.078,3.011 6.203,3.769 9.219,1.691 3.011,-2.078 3.769,-6.203 1.691,-9.215"
       style="fill:#ffc342;fill-opacity:1;fill-rule:nonzero;stroke:none;stroke-width:0.1"
       id="path314" /><path
       d="m 249.707,238.627 c -2.078,-3.015 -6.203,-3.772 -9.219,-1.695 -3.011,2.078 -3.768,6.204 -1.691,9.219 2.078,3.012 6.202,3.769 9.219,1.691 3.011,-2.078 3.769,-6.202 1.691,-9.215 z"
       style="fill:none;stroke:#000000;stroke-width:1.65675;stroke-linecap:butt;stroke-linejoin:miter;stroke-miterlimit:4;stroke-dasharray:none;stroke-opacity:1"
       id="path316" /><path
       d="m 52.277,297.998 v -2.5 c -0.9801,0.469 -1.902,0.817 -2.7649,1.047 -0.8672,0.227 -1.7,0.344 -2.5,0.344 -1.3992,0 -2.4769,-0.273 -3.2351,-0.812 -0.75,-0.543 -1.125,-1.313 -1.125,-2.313 0,-0.844 0.25,-1.48 0.75,-1.906 0.5,-0.43 1.4531,-0.774 2.8601,-1.031 l 1.5469,-0.313 c 1.914,-0.367 3.3281,-1.008 4.234,-1.922 0.914,-0.918 1.375,-2.148 1.375,-3.687 0,-1.844 -0.6211,-3.243 -1.859,-4.188 -1.2309,-0.949 -3.032,-1.422 -5.407,-1.422 -0.8981,0 -1.8508,0.106 -2.859,0.313 -1.0121,0.195 -2.059,0.5 -3.141,0.906 v 2.641 c 1.039,-0.586 2.055,-1.028 3.0468,-1.328 1,-0.293 1.9852,-0.438 2.9532,-0.438 1.457,0 2.582,0.285 3.375,0.859 0.8011,0.571 1.2031,1.395 1.2031,2.469 0,0.926 -0.2891,1.649 -0.859,2.172 -0.5621,0.531 -1.5,0.926 -2.8121,1.188 l -1.5629,0.296 c -1.9063,0.383 -3.2891,0.985 -4.141,1.797 -0.8551,0.813 -1.2813,1.942 -1.2813,3.391 0,1.676 0.5864,2.992 1.766,3.953 1.1762,0.969 2.8012,1.453 4.875,1.453 0.8942,0 1.8012,-0.086 2.7192,-0.25 0.925,-0.156 1.875,-0.398 2.843,-0.719"
       style="fill:#000000;fill-opacity:1;fill-rule:nonzero;stroke:none;stroke-width:0.1"
       id="path318" /><path
       d="m 257.992,252.752 h 10.891 v -2.156 h -8.328 v -5.594 h 7.515 v -2.156 h -7.515 v -9.047 h -2.563"
       style="fill:#000000;fill-opacity:1;fill-rule:nonzero;stroke:none;stroke-width:0.1"
       id="path320" /><path
       d="m 255,391.686 h 11.984 v -2.156 h -9.422 v -5.61 h 9.032 v -2.156 h -9.032 v -6.875 h 9.657 v -2.156 H 255"
       style="fill:#000000;fill-opacity:1;fill-rule:nonzero;stroke:none;stroke-width:0.1"
       id="path322" /><path
       d="m 180.203,302.784 v 19.879"
       style="fill:none;stroke:#000000;stroke-width:3.31349;stroke-linecap:butt;stroke-linejoin:miter;stroke-miterlimit:4;stroke-dasharray:none;stroke-opacity:1"
       id="path324" /><path
       d="m 184.215,309.162 -3.996,-10.859 -3.992,10.859 c 2.359,-1.734 5.585,-1.722 7.988,0"
       style="fill:#000000;fill-opacity:1;fill-rule:evenodd;stroke:none;stroke-width:0.1"
       id="path326" /><path
       d="m 191.301,310.272 c 0.824,0 2.867,0.086 4.254,0.652 1.957,0.824 2.086,2.477 2.086,2.867 0,1.215 -1.043,2.348 -2.953,2.348 -3.086,0 -7.297,-2.695 -7.297,-7.562 0,-2.821 1.648,-4.997 4.386,-4.997 3.953,0 6.254,2.957 6.254,3.262 0,0.172 -0.129,0.391 -0.301,0.391 -0.175,0 -0.218,-0.09 -0.394,-0.305 -2.172,-2.738 -5.211,-2.738 -5.516,-2.738 -2.172,0 -2.433,2.347 -2.433,3.215 0,0.347 0.043,1.172 0.433,2.867 z m -1.305,0.609 c 1.086,4.215 3.953,4.649 4.692,4.649 1.261,0 2.042,-0.825 2.042,-1.739 0,-2.91 -4.433,-2.91 -5.605,-2.91"
       style="fill:#000000;fill-opacity:1;fill-rule:nonzero;stroke:none;stroke-width:0.1"
       id="path328" /><path
       d="m 205.328,326.061 c 0,0.305 -0.262,0.738 -0.781,0.738 -0.524,0 -1.086,-0.519 -1.086,-1.086 0,-0.304 0.215,-0.738 0.781,-0.738 0.52,0 1.086,0.566 1.086,1.086 z m -3.953,-9.863 c -0.09,-0.258 -0.176,-0.477 -0.176,-0.825 0,-0.91 0.739,-1.605 1.824,-1.605 1.915,0 2.782,2.648 2.782,2.953 0,0.262 -0.262,0.262 -0.305,0.262 -0.258,0 -0.305,-0.133 -0.391,-0.348 -0.433,-1.566 -1.257,-2.348 -2.043,-2.348 -0.39,0 -0.476,0.262 -0.476,0.696 0,0.433 0.129,0.781 0.305,1.215 0.218,0.523 0.433,1.043 0.609,1.566 0.172,0.477 0.91,2.215 0.953,2.477 0.09,0.171 0.133,0.39 0.133,0.609 0,0.91 -0.785,1.648 -1.824,1.648 -1.957,0 -2.825,-2.648 -2.825,-2.996 0,-0.218 0.258,-0.218 0.348,-0.218 0.258,0 0.258,0.086 0.348,0.304 0.476,1.653 1.343,2.348 2.039,2.348 0.304,0 0.48,-0.133 0.48,-0.652 0,-0.481 -0.09,-0.739 -0.566,-1.957"
       style="fill:#000000;fill-opacity:1;fill-rule:nonzero;stroke:none;stroke-width:0.1"
       id="path330" /><path
       d="m 216.77,323.37 c 0,2.039 -0.782,4.21 -2.692,4.21 -2.91,0 -5.996,-5.21 -5.996,-9.644 0,-2.301 0.91,-4.168 2.691,-4.168 2.915,0 5.997,5.254 5.997,9.602 z m -6.516,-2.348 c 1,4.172 2.695,5.996 3.824,5.996 1.215,0 1.215,-2.129 1.215,-2.477 0,-0.781 -0.129,-1.91 -0.52,-3.519 z m 4.344,-0.695 c -0.563,-2.129 -1,-3.172 -1.606,-4.129 -0.566,-0.996 -1.347,-1.911 -2.219,-1.911 -1.039,0 -1.214,1.477 -1.214,2.52 0,1.262 0.347,2.781 0.523,3.52"
       style="fill:#000000;fill-opacity:1;fill-rule:nonzero;stroke:none;stroke-width:0.1"
       id="path332" /><path
       d="m 50.0039,380.686 c 0.7422,0 2.5781,0.078 3.8281,0.586 1.7578,0.742 1.875,2.226 1.875,2.578 0,1.094 -0.9371,2.109 -2.6558,2.109 -2.7742,0 -6.5633,-2.422 -6.5633,-6.797 0,-2.539 1.4851,-4.492 3.9461,-4.492 3.5539,0 5.625,2.657 5.625,2.93 0,0.156 -0.118,0.352 -0.2738,0.352 -0.1563,0 -0.1954,-0.079 -0.3512,-0.274 -1.9539,-2.461 -4.6879,-2.461 -4.961,-2.461 -1.9531,0 -2.1878,2.11 -2.1878,2.891 0,0.312 0.0386,1.054 0.391,2.578 z m -1.1719,0.547 c 0.977,3.789 3.5551,4.179 4.2192,4.179 1.1328,0 1.8359,-0.742 1.8359,-1.562 0,-2.617 -3.9851,-2.617 -5.0391,-2.617"
       style="fill:#000000;fill-opacity:1;fill-rule:nonzero;stroke:none;stroke-width:0.1"
       id="path334" /><path
       d="m 69.918,387.928 c 0.273,0 0.6992,0 0.6992,0.391 0,0.468 -0.4262,0.468 -0.6992,0.468 H 59.527 c -0.2731,0 -0.7032,0 -0.7032,-0.429 0,-0.43 0.391,-0.43 0.7032,-0.43"
       style="fill:#000000;fill-opacity:1;fill-rule:nonzero;stroke:none;stroke-width:0.1"
       id="path336" /><path
       d="m 78.1762,394.877 c 0,0.274 -0.2352,0.664 -0.7032,0.664 -0.4691,0 -0.9769,-0.468 -0.9769,-0.976 0,-0.274 0.1949,-0.664 0.7027,-0.664 0.4692,0 0.9774,0.508 0.9774,0.976 z m -3.5551,-8.863 c -0.0781,-0.234 -0.1563,-0.43 -0.1563,-0.742 0,-0.82 0.6641,-1.445 1.6403,-1.445 1.7187,0 2.5,2.382 2.5,2.656 0,0.234 -0.234,0.234 -0.2731,0.234 -0.234,0 -0.273,-0.117 -0.3519,-0.312 -0.3903,-1.407 -1.1321,-2.11 -1.8352,-2.11 -0.3519,0 -0.4301,0.235 -0.4301,0.625 0,0.391 0.1172,0.703 0.2731,1.094 0.1961,0.469 0.391,0.938 0.5473,1.406 0.1558,0.43 0.8199,1.992 0.8597,2.227 0.0781,0.156 0.1172,0.351 0.1172,0.547 0,0.82 -0.7031,1.48 -1.641,1.48 -1.7539,0 -2.5352,-2.379 -2.5352,-2.691 0,-0.196 0.234,-0.196 0.3121,-0.196 0.2348,0 0.2348,0.079 0.3129,0.274 0.4262,1.484 1.2071,2.109 1.8321,2.109 0.273,0 0.43,-0.117 0.43,-0.586 0,-0.429 -0.0781,-0.664 -0.5082,-1.757"
       style="fill:#000000;fill-opacity:1;fill-rule:nonzero;stroke:none;stroke-width:0.1"
       id="path338" /><path
       d="m 83.8551,390.858 h 1.7578 c 0.3519,0 0.5473,0 0.5473,0.387 0,0.234 -0.1954,0.234 -0.5082,0.234 h -1.6399 l 0.625,2.578 c 0.0391,0.078 0.0777,0.195 0.0777,0.234 0,0.352 -0.2738,0.586 -0.625,0.586 -0.4296,0 -0.6636,-0.312 -0.8199,-0.742 -0.1179,-0.469 0.1172,0.391 -0.6648,-2.656 H 80.848 c -0.3128,0 -0.5468,0 -0.5468,-0.387 0,-0.234 0.1949,-0.234 0.5078,-0.234 h 1.6398 l -1.0148,-4.102 c -0.118,-0.429 -0.2738,-1.054 -0.2738,-1.289 0,-1.015 0.8988,-1.64 1.875,-1.64 1.9527,0 3.0468,2.421 3.0468,2.656 0,0.234 -0.234,0.234 -0.273,0.234 -0.2352,0 -0.2352,-0.039 -0.391,-0.351 -0.4692,-1.094 -1.3668,-2.071 -2.3051,-2.071 -0.3899,0 -0.625,0.235 -0.625,0.86 0,0.156 0.0781,0.547 0.1172,0.703"
       style="fill:#000000;fill-opacity:1;fill-rule:nonzero;stroke:none;stroke-width:0.1"
       id="path340" /><path
       d="m 101.727,394.448 c 0.156,0.664 0.195,0.82 1.484,0.82 0.391,0 0.586,0 0.586,0.352 0,0.078 -0.039,0.273 -0.274,0.273 -0.507,0 -1.757,-0.078 -2.265,-0.078 h -1.211 c -0.3521,0.039 -0.781,0.078 -1.0939,0.078 -0.1172,0 -0.391,0 -0.391,-0.391 0,-0.234 0.2348,-0.234 0.5859,-0.234 0,0 0.352,0 0.6641,-0.039 0.3519,-0.039 0.3909,-0.078 0.3909,-0.274 0,0 0,-0.117 -0.078,-0.351 l -1.016,-4.137 H 93.25 l 1.016,4.059 c 0.1559,0.586 0.1949,0.742 1.5231,0.742 0.3129,0 0.5468,0 0.5468,0.352 0,0.078 -0.0781,0.273 -0.2738,0.273 -0.507,0 -1.7961,-0.078 -2.3043,-0.078 h -1.2066 c -0.3133,0.039 -0.7422,0.078 -1.0942,0.078 -0.0781,0 -0.3519,0 -0.3519,-0.391 0,-0.234 0.1961,-0.234 0.5469,-0.234 0.039,0 0.3519,0 0.664,-0.039 0.391,-0.039 0.4301,-0.078 0.4301,-0.274 0,0 0,-0.117 -0.0781,-0.351 l -2.3442,-9.254 c -0.1168,-0.586 -0.1558,-0.742 -1.5226,-0.742 -0.2742,0 -0.5082,0 -0.5082,-0.352 0,-0.195 0.1172,-0.273 0.273,-0.273 0.5078,0 1.7578,0.078 2.266,0.078 0.2731,0 0.8981,0 1.211,-0.039 0.3519,0 0.7808,-0.039 1.0898,-0.039 0.0781,0 0.3902,0 0.3902,0.351 0,0.274 -0.1949,0.274 -0.5851,0.274 -0.2699,0 -0.3481,0 -0.6609,0.039 -0.3899,0.039 -0.3899,0.078 -0.3899,0.273 0,0 0,0.117 0.0777,0.352 l 1.1293,4.57 h 5.859 l -1.1332,-4.492 c -0.1558,-0.586 -0.1949,-0.742 -1.5621,-0.742 -0.2738,0 -0.5078,0 -0.5078,-0.352 0,-0.195 0.1172,-0.273 0.273,-0.273 0.5079,0 1.7579,0.078 2.2661,0.078 0.3129,0 0.8988,0 1.2109,-0.039 0.352,0 0.781,-0.039 1.133,-0.039 0.078,0 0.351,0 0.351,0.351 0,0.274 -0.195,0.274 -0.586,0.274 -0.273,0 -0.351,0 -0.664,0.039 -0.3899,0.039 -0.3899,0.078 -0.3899,0.273 0,0.078 0.0778,0.274 0.0778,0.352"
       style="fill:#000000;fill-opacity:1;fill-rule:nonzero;stroke:none;stroke-width:0.1"
       id="path342" /><path
       d="m 109.91,392.752 c 0,0.43 0,0.899 -0.469,0.899 -0.507,0 -0.507,-0.469 -0.507,-0.899 v -23.156 c 0,-0.43 0,-0.898 0.507,-0.898 0.469,0 0.469,0.468 0.469,0.898"
       style="fill:#000000;fill-opacity:1;fill-rule:nonzero;stroke:none;stroke-width:0.1"
       id="path344" /><path
       d="m 128.973,392.245 c 0,0.078 -0.078,0.273 -0.313,0.273 -0.117,0 -0.117,-0.039 -0.43,-0.391 l -1.21,-1.406 c -0.625,1.172 -1.915,1.797 -3.555,1.797 -3.164,0 -6.129,-2.891 -6.129,-5.895 0,-1.992 1.285,-3.164 2.574,-3.515 l 2.656,-0.703 c 0.938,-0.235 2.305,-0.625 2.305,-2.657 0,-2.226 -2.031,-4.57 -4.492,-4.57 -1.602,0 -4.371,0.547 -4.371,3.633 0,0.586 0.156,1.211 0.156,1.328 0.039,0.117 0.039,0.156 0.039,0.195 0,0.235 -0.156,0.274 -0.273,0.274 -0.118,0 -0.196,-0.039 -0.274,-0.117 -0.078,-0.079 -1.484,-5.782 -1.484,-5.86 0,-0.113 0.117,-0.23 0.273,-0.23 0.117,0 0.157,0.039 0.469,0.386 l 1.211,1.407 c 1.055,-1.446 2.77,-1.793 4.215,-1.793 3.398,0 6.328,3.316 6.328,6.402 0,1.719 -0.859,2.578 -1.211,2.93 -0.586,0.547 -0.977,0.664 -3.164,1.211 -0.586,0.156 -1.445,0.429 -1.68,0.468 -0.664,0.235 -1.523,0.938 -1.523,2.266 0,2.027 1.992,4.137 4.375,4.137 2.031,0 3.555,-1.094 3.555,-3.863 0,-0.782 -0.079,-1.25 -0.079,-1.407 0,0 0,-0.234 0.274,-0.234 0.273,0 0.312,0.078 0.39,0.508"
       style="fill:#000000;fill-opacity:1;fill-rule:nonzero;stroke:none;stroke-width:0.1"
       id="path346" /><path
       d="m 136.379,380.764 c 0.117,0.273 0.117,0.352 0.117,0.43 0,0.039 0,0.117 -0.117,0.39 l -4.332,11.481 c -0.156,0.43 -0.313,0.586 -0.586,0.586 -0.273,0 -0.508,-0.235 -0.508,-0.508 0,-0.078 0,-0.117 0.117,-0.391 l 4.41,-11.558 -4.41,-11.52 c -0.117,-0.273 -0.117,-0.351 -0.117,-0.469 0,-0.273 0.235,-0.507 0.508,-0.507 0.312,0 0.43,0.273 0.508,0.507"
       style="fill:#000000;fill-opacity:1;fill-rule:nonzero;stroke:none;stroke-width:0.1"
       id="path348" /><path
       style="fill:url(#linearGradient3740);fill-opacity:1;stroke-width:0.24"
       d="m 93.727302,324.8035 c 0,0.11754 0.891,0.44605 1.98,0.73002 4.850568,1.26486 9.166278,2.54404 11.939998,3.53902 18.26696,6.55268 37.28528,18.75053 59.35151,38.06647 6.55262,5.73592 11.44849,10.28106 11.44849,10.62836 l -3.84,6.16555 28.08,0.40465 -10.45823,-25.85953 -4.44821,5.65854 -18.09356,-12.78416 c -18.9173,-12.47875 -36.45318,-20.1423 -54.93603,-24.00821 -8.43532,-1.76436 -21.023968,-3.28566 -21.023968,-2.54069 z"
       id="path2949" /></g></svg>
