<?xml version="1.0" encoding="UTF-8" standalone="no"?>
<svg
   xmlns:dc="http://purl.org/dc/elements/1.1/"
   xmlns:cc="http://creativecommons.org/ns#"
   xmlns:rdf="http://www.w3.org/1999/02/22-rdf-syntax-ns#"
   xmlns:svg="http://www.w3.org/2000/svg"
   xmlns="http://www.w3.org/2000/svg"
   version="1.1"
   id="svg2"
   viewBox="0 0 417.95466 482.29634"
   height="136.11475mm"
   width="117.95609mm">
  <defs
     id="defs4" />
  <metadata
     id="metadata7">
    <rdf:RDF>
      <cc:Work
         rdf:about="">
        <dc:format>image/svg+xml</dc:format>
        <dc:type
           rdf:resource="http://purl.org/dc/dcmitype/StillImage" />
        <dc:title></dc:title>
      </cc:Work>
    </rdf:RDF>
  </metadata>
  <g
     transform="translate(-153.91869,-255.76581)"
     id="layer1">
    <path
       id="path4155"
       d="m 156.996,737.36266 c -5.9024,-5.4416 -1.21958,-15.5613 -2.71212,-22.9361 0.1688,-151.8884 -0.43041,-303.785 0.45202,-455.66679 17.22624,-5.96721 39.80684,-0.87123 59.05728,-2.57962 118.57318,0.18508 237.49363,-0.77639 355.86933,0.55079 4.31058,6.18493 0.78102,15.2756 1.9263,22.64324 0,151.92368 0,303.84728 0,455.77098 -16.08957,5.8615 -35.95976,0.7692 -53.40534,2.544 -35.77099,-0.036 -71.54838,0.198 -107.31492,-0.3206 32.57542,-10.931 65.83271,-30.9757 78.98291,-64.4302 11.51335,-17.3485 7.32548,-38.2877 7.6569,-57.6955 -5.3155,-24.8783 -23.02211,-45.7197 -42.82706,-60.8257 -13.09064,-9.5509 -24.98456,-20.6263 -36.43509,-32.4154 -7.09155,-20.7706 17.4126,-32.9798 29.35946,-45.5789 19.65354,-16.1861 34.54229,-40.6046 31.77104,-66.7597 4.94861,-14.3344 -8.92682,-32.4817 -0.37272,-43.8701 15.40774,-15.2745 30.50315,-30.8765 46.29612,-45.7529 0.18995,12.3474 -8.52203,21.6588 -5.78402,34.2453 0,45.8485 0,91.6969 0,137.5454 4.93664,12.1432 27.4195,11.6919 32.96492,0.8423 1.56095,-22.6752 0.21534,-46.0108 0.66512,-68.9385 -0.3678,-27.9754 0.73853,-56.2861 -0.55146,-84.0518 -9.67149,-5.5104 -7.63122,-15.2043 -7.68633,-24.89139 -0.0307,-7.90422 -1.99276,-16.60143 6.22066,-21.11991 5.94519,-6.31403 25.87168,-21.52206 7.01789,-18.65848 -88.27388,-0.0484 -176.54776,-0.0968 -264.82164,-0.14523 -44.37213,44.52021 -89.29332,88.50961 -133.10451,133.57641 20.31565,4.8144 45.65262,1.8363 67.92592,3.5533 28.02397,-8.8528 14.48602,23.251 23.83793,38.1222 14.09956,35.1595 49.0786,60.2552 87.17169,60.8826 15.63092,-3.3896 19.32649,4.3366 16.90935,17.5123 -0.29241,9.1581 -0.83615,18.3485 4.93607,26.1079 -2.6765,12.1945 -24.80103,4.6373 -34.63624,9.9771 -31.81352,5.6785 -64.73405,17.4049 -86.98085,41.7167 -14.51882,15.7735 -19.91476,37.3835 -17.84015,58.414 -1.901,17.0832 4.61889,34.1602 17.47133,45.6733 9.72532,13.0874 31.50846,21.9325 41.75933,27.0561 -41.25605,0.2921 -82.52586,0.3873 -123.77912,-0.097 z m 180.08479,-28.9225 c -20.97715,-2.6287 -39.96423,-16.1654 -51.62171,-33.4748 -11.70395,-22.9393 -7.34671,-55.5292 16.54495,-68.89 26.75334,-18.3517 61.29364,-19.3727 92.4597,-17.508 17.90198,12.5562 37.78664,24.8564 49.4378,43.876 10.17294,17.2163 7.50035,39.53 -4.25604,55.2665 -11.43275,18.2436 -35.13017,22.327 -55.14978,23.9522 -15.90261,-0.3505 -31.9527,1.4241 -47.41492,-3.2219 z m 23.50504,-226.5348 c -23.80244,-6.782 -38.39746,-28.7929 -45.30567,-51.3925 -7.82084,-22.3342 -11.17829,-47.7754 -2.50097,-70.3165 9.30175,-26.9731 47.03931,-36.2162 68.41877,-17.9904 13.28837,9.2471 21.5846,22.9435 26.5113,38.1416 11.49736,25.9831 18.1631,58.9015 3.1181,84.8073 -11.66616,13.9518 -32.54783,21.1149 -50.24153,16.7505 z"
       style="fill:#000000" />
    <path
       id="path4153"
       d=""
       style="fill:#000000" />
    <path
       id="path4151"
       d=""
       style="fill:#000000" />
    <path
       id="path4149"
       d=""
       style="fill:#000000" />
    <path
       id="path4147"
       d=""
       style="fill:#000000" />
  </g>
</svg>
