<?xml version="1.0" encoding="UTF-8" standalone="no"?>
<!-- Created with Inkscape (http://www.inkscape.org/) -->

<svg
   version="1.1"
   id="svg2"
   xml:space="preserve"
   width="213.15274"
   height="196.53792"
   viewBox="0 0 213.15274 196.53791"
   xmlns="http://www.w3.org/2000/svg"
   xmlns:svg="http://www.w3.org/2000/svg"><defs
     id="defs6"><clipPath
       clipPathUnits="userSpaceOnUse"
       id="clipPath24"><path
         d="M 0,0 H 100 V 100 H 0 Z"
         id="path22" /></clipPath><clipPath
       clipPathUnits="userSpaceOnUse"
       id="clipPath28"><path
         d="M 0,0 H 100 V 100 H 0 Z"
         id="path26" /></clipPath><clipPath
       clipPathUnits="userSpaceOnUse"
       id="clipPath32"><path
         d="M 0,0 H 100 V 100 H 0 Z"
         id="path30" /></clipPath><linearGradient
       x1="0"
       y1="0"
       x2="100.00128"
       y2="0"
       gradientUnits="userSpaceOnUse"
       id="linearGradient42"><stop
         style="stop-opacity:0;stop-color:#ffffff"
         offset="0"
         id="stop34" /><stop
         style="stop-opacity:0;stop-color:#ffffff"
         offset="25.00032"
         id="stop36" /><stop
         style="stop-opacity:1;stop-color:#ffffff"
         offset="75.00096"
         id="stop38" /><stop
         style="stop-opacity:1;stop-color:#ffffff"
         offset="100.00128"
         id="stop40" /></linearGradient><mask
       maskUnits="userSpaceOnUse"
       x="0"
       y="0"
       width="1"
       height="1"
       id="mask44"><g
         id="g66"><g
           clip-path="url(#clipPath24)"
           opacity="0.8"
           id="g64"><g
             id="g62"><g
               id="g60"><g
                 clip-path="url(#clipPath28)"
                 id="g58"><g
                   id="g56"><g
                     id="g52"><g
                       id="g50"><g
                         clip-path="url(#clipPath32)"
                         id="g48"><path
                           d="M 0,0 H 100 V 100 H 0 Z"
                           style="fill:url(#linearGradient42);stroke:none"
                           id="path46" /></g></g></g><g
                     transform="translate(100)"
                     id="g54" /></g></g></g></g></g></g></mask></defs><g
     id="g8"
     transform="matrix(1.3333333,0,0,-1.3333333,-11.973233,203.20316)"><g
       id="g14"
       transform="translate(70.646,75.866)"><g
         id="g16"><g
           id="g18"
           transform="matrix(1.19527,0,0,2.74805,-44.17326,-134.56947)"><g
             id="g20" /><g
             id="g68"
             mask="url(#mask44)"><g
               id="g70"
               transform="matrix(0.83679,0,0,0.36388,36.96384,48.96663)"><path
                 d="M -14.17339,14.5719 39.68535,71.26552 45.35506,-65.59622 -14.17339,-14.5719"
                 style="fill:#9c54b5;fill-opacity:0.8;fill-rule:nonzero;stroke:none"
                 id="path72" /></g></g></g></g></g><g
       id="g76"
       transform="translate(70.646,75.866)" /><g
       id="g78"
       transform="translate(70.646,75.866)" /><g
       id="g80"
       transform="translate(70.646,75.866)" /><g
       id="g82"
       transform="translate(70.646,75.866)" /><g
       id="g84"
       transform="translate(70.646,75.866)"><path
         d="M 39.68535,56.69362 56.69362,0 45.35506,-51.02432"
         style="fill:none;stroke:#b076c4;stroke-width:39.6855;stroke-linecap:round;stroke-linejoin:round;stroke-miterlimit:10;stroke-dasharray:none;stroke-opacity:1"
         id="path86" /></g><g
       id="g88"
       transform="translate(70.646,75.866)"><path
         d="m 0,0 c 0,7.82784 -6.34554,14.17339 -14.17339,14.17339 -7.82785,0 -14.1734,-6.34555 -14.1734,-14.17339 0,-7.82784 6.34555,-14.17339 14.1734,-14.17339 C -6.34554,-14.17339 0,-7.82784 0,0 Z"
         style="fill:none;stroke:#b076c4;stroke-width:11.3387;stroke-linecap:round;stroke-linejoin:round;stroke-miterlimit:10;stroke-dasharray:none;stroke-opacity:1"
         id="path90" /></g><g
       id="g92"
       transform="translate(70.646,75.866)"><path
         d="M 8.50404,0 H 26.36255"
         style="fill:none;stroke:#b076c4;stroke-width:2.83466;stroke-linecap:round;stroke-linejoin:round;stroke-miterlimit:10;stroke-dasharray:none;stroke-opacity:0.8"
         id="path94" /><g
         id="g96"
         transform="translate(26.36255)"><g
           id="g98"><path
             d="M 4.14738,0 C 3.63806,0.13312 1.39926,0.8875 0,1.70844 V -1.70844 C 1.39926,-0.8875 3.63806,-0.13312 4.14738,0 Z"
             style="fill:#b076c4;fill-opacity:0.8;fill-rule:nonzero;stroke:#b076c4;stroke-width:1.70076;stroke-linecap:round;stroke-linejoin:miter;stroke-miterlimit:10;stroke-dasharray:none;stroke-opacity:0.8"
             id="path100" /></g></g></g><g
       id="g102"
       transform="translate(70.646,75.866)"><path
         d="M 1.44467,16.44023 18.79619,34.7048"
         style="fill:none;stroke:#b076c4;stroke-width:2.83466;stroke-linecap:round;stroke-linejoin:round;stroke-miterlimit:10;stroke-dasharray:none;stroke-opacity:0.8"
         id="path104" /><g
         id="g106"
         transform="matrix(0.6887,0.72496,-0.72496,0.6887,18.79617,34.70479)"><g
           id="g108"><path
             d="M 4.14738,0 C 3.63806,0.13312 1.39926,0.8875 0,1.70844 V -1.70844 C 1.39926,-0.8875 3.63806,-0.13312 4.14738,0 Z"
             style="fill:#b076c4;fill-opacity:0.8;fill-rule:nonzero;stroke:#b076c4;stroke-width:1.70076;stroke-linecap:round;stroke-linejoin:miter;stroke-miterlimit:10;stroke-dasharray:none;stroke-opacity:0.8"
             id="path110" /></g></g></g><g
       id="g112"
       transform="translate(70.646,75.866)"><path
         d="m 3.04367,-14.75748 19.28354,-16.5287"
         style="fill:none;stroke:#b076c4;stroke-width:2.83466;stroke-linecap:round;stroke-linejoin:round;stroke-miterlimit:10;stroke-dasharray:none;stroke-opacity:0.8"
         id="path114" /><g
         id="g116"
         transform="matrix(0.75922,-0.65076,0.65076,0.75922,22.32721,-31.28618)"><g
           id="g118"><path
             d="M 4.14738,0 C 3.63806,0.13312 1.39926,0.8875 0,1.70844 V -1.70844 C 1.39926,-0.8875 3.63806,-0.13312 4.14738,0 Z"
             style="fill:#b076c4;fill-opacity:0.8;fill-rule:nonzero;stroke:#b076c4;stroke-width:1.70076;stroke-linecap:round;stroke-linejoin:miter;stroke-miterlimit:10;stroke-dasharray:none;stroke-opacity:0.8"
             id="path120" /></g></g></g><g
       id="g122"
       transform="translate(70.646,75.866)"><path
         d="m 0,0 c 0,7.82784 -6.34554,14.17339 -14.17339,14.17339 -7.82785,0 -14.1734,-6.34555 -14.1734,-14.17339 0,-7.82784 6.34555,-14.17339 14.1734,-14.17339 C -6.34554,-14.17339 0,-7.82784 0,0 Z"
         style="fill:none;stroke:#000000;stroke-width:0.79701;stroke-linecap:butt;stroke-linejoin:miter;stroke-miterlimit:10;stroke-dasharray:none;stroke-opacity:1"
         id="path124" /><g
         id="g126"
         transform="translate(-16.953,-3.322)"><g
           id="g128"><g
             id="g130"
             transform="translate(-53.693,-72.544)"><text
               transform="matrix(1,0,0,-1,53.693,72.544)"
               style="font-variant:normal;font-weight:normal;font-size:9.96264px;font-family:'Fira Sans';-inkscape-font-specification:FiraSans-Regular;writing-mode:lr-tb;fill:#000000;fill-opacity:1;fill-rule:nonzero;stroke:none"
               id="text134"><tspan
                 x="0"
                 y="0"
                 id="tspan132">0</tspan></text><g
               id="g136"
               transform="translate(53.693,72.544)" /></g></g><g
           id="g138"
           transform="translate(16.953,3.322)" /></g></g><g
       id="g140"
       transform="translate(70.646,75.866)"><path
         d="m 70.867,0 c 0,7.82784 -6.34555,14.17339 -14.17338,14.17339 -7.82785,0 -14.1734,-6.34555 -14.1734,-14.17339 0,-7.82784 6.34555,-14.17339 14.1734,-14.17339 7.82783,0 14.17338,6.34555 14.17338,14.17339 z"
         style="fill:none;stroke:#000000;stroke-width:0.79701;stroke-linecap:butt;stroke-linejoin:miter;stroke-miterlimit:10;stroke-dasharray:none;stroke-opacity:1"
         id="path142" /><g
         id="g144"
         transform="translate(54.536,-3.332)"><g
           id="g146"><g
             id="g148"
             transform="translate(-125.182,-72.534)"><text
               transform="matrix(1,0,0,-1,125.182,72.534)"
               style="font-variant:normal;font-weight:normal;font-size:9.96264px;font-family:'Fira Sans';-inkscape-font-specification:FiraSans-Regular;writing-mode:lr-tb;fill:#000000;fill-opacity:1;fill-rule:nonzero;stroke:none"
               id="text152"><tspan
                 x="0"
                 y="0"
                 id="tspan150">1</tspan></text><g
               id="g154"
               transform="translate(125.182,72.534)" /></g></g><g
           id="g156"
           transform="translate(-54.536,3.332)" /></g></g><g
       id="g158"
       transform="translate(70.646,75.866)"><path
         d="m 53.85875,56.69362 c 0,7.82783 -6.34555,14.17338 -14.1734,14.17338 -7.82785,0 -14.1734,-6.34555 -14.1734,-14.17338 0,-7.82785 6.34555,-14.1734 14.1734,-14.1734 7.82785,0 14.1734,6.34555 14.1734,14.1734 z"
         style="fill:none;stroke:#000000;stroke-width:0.79701;stroke-linecap:butt;stroke-linejoin:miter;stroke-miterlimit:10;stroke-dasharray:none;stroke-opacity:1"
         id="path160" /><g
         id="g162"
         transform="translate(37.219,53.311)"><g
           id="g164"><g
             id="g166"
             transform="translate(-107.865,-129.177)"><text
               transform="matrix(1,0,0,-1,107.865,129.177)"
               style="font-variant:normal;font-weight:normal;font-size:9.96264px;font-family:'Fira Sans';-inkscape-font-specification:FiraSans-Regular;writing-mode:lr-tb;fill:#000000;fill-opacity:1;fill-rule:nonzero;stroke:none"
               id="text170"><tspan
                 x="0"
                 y="0"
                 id="tspan168">2</tspan></text><g
               id="g172"
               transform="translate(107.865,129.177)" /></g></g><g
           id="g174"
           transform="translate(-37.219,-53.311)" /></g></g><g
       id="g176"
       transform="translate(70.646,75.866)"><path
         d="m 59.52844,-51.02432 c 0,7.82785 -6.34555,14.1734 -14.17338,14.1734 -7.82786,0 -14.1734,-6.34555 -14.1734,-14.1734 0,-7.82785 6.34554,-14.1734 14.1734,-14.1734 7.82783,0 14.17338,6.34555 14.17338,14.1734 z"
         style="fill:none;stroke:#000000;stroke-width:0.79701;stroke-linecap:butt;stroke-linejoin:miter;stroke-miterlimit:10;stroke-dasharray:none;stroke-opacity:1"
         id="path178" /><g
         id="g180"
         transform="translate(42.869,-54.346)"><g
           id="g182"><g
             id="g184"
             transform="translate(-113.515,-21.52)"><text
               transform="matrix(1,0,0,-1,113.515,21.52)"
               style="font-variant:normal;font-weight:normal;font-size:9.96264px;font-family:'Fira Sans';-inkscape-font-specification:FiraSans-Regular;writing-mode:lr-tb;fill:#000000;fill-opacity:1;fill-rule:nonzero;stroke:none"
               id="text188"><tspan
                 x="0"
                 y="0"
                 id="tspan186">3</tspan></text><g
               id="g190"
               transform="translate(113.515,21.52)" /></g></g><g
           id="g192"
           transform="translate(-42.869,54.346)" /></g></g><g
       id="g194"
       transform="translate(70.646,75.866)" /><g
       id="g196"
       transform="translate(70.646,75.866)"><g
         id="g198"
         transform="translate(-62.326,52.841)"><g
           id="g200"><g
             id="g202"
             transform="translate(-8.32,-128.707)"><text
               transform="matrix(1,0,0,-1,8.32,128.707)"
               style="font-variant:normal;font-weight:bold;font-size:14.3462px;font-family:'Fira Sans Compressed';-inkscape-font-specification:FiraSansCompressed-Bold;writing-mode:lr-tb;fill:#000000;fill-opacity:1;fill-rule:nonzero;stroke:none"
               id="text206"><tspan
                 x="0 7.9047561 14.245776 21.40453 28.190283 32.637604 37.630081 44.415836 51.588936 58.016033 64.801788"
                 y="0"
                 id="tspan204">Hyper-edge:</tspan></text><g
               id="g208"
               transform="translate(8.32,128.707)" /></g></g><g
           id="g210"
           transform="translate(62.326,-52.841)" /></g></g><g
       id="g212"
       transform="translate(70.646,75.866)"><g
         id="g214"
         transform="translate(-48.854,20.156)"><g
           id="g216"><g
             id="g218"
             transform="translate(-21.792,-96.022)"><text
               transform="matrix(1,0,0,-1,21.792,96.022)"
               style="font-variant:normal;font-weight:normal;font-size:9.96264px;font-family:'Fira Sans';-inkscape-font-specification:FiraSans-Regular;writing-mode:lr-tb;fill:#000000;fill-opacity:1;fill-rule:nonzero;stroke:none"
               id="text222"><tspan
                 x="0 3.596513 8.9663763 11.716064"
                 y="0"
                 id="tspan220">tail</tspan></text><g
               id="g224"
               transform="translate(21.792,96.022)" /></g></g><g
           id="g226"
           transform="translate(48.854,-20.156)" /></g></g><g
       id="g228"
       transform="translate(70.646,75.866)"><g
         id="g230"
         transform="translate(76.729,20.156)"><g
           id="g232"><g
             id="g234"
             transform="translate(-147.375,-96.022)"><text
               transform="matrix(1,0,0,-1,147.375,96.022)"
               style="font-variant:normal;font-weight:normal;font-size:9.96264px;font-family:'Fira Sans';-inkscape-font-specification:FiraSans-Regular;writing-mode:lr-tb;fill:#000000;fill-opacity:1;fill-rule:nonzero;stroke:none"
               id="text238"><tspan
                 x="0 5.7683687 11.138231 16.508095"
                 y="0"
                 id="tspan236">head</tspan></text><g
               id="g240"
               transform="translate(147.375,96.022)" /></g></g><g
           id="g242"
           transform="translate(-76.729,-20.156)" /></g></g></g></svg>
