<?xml version="1.0" encoding="UTF-8"?>
<svg xmlns="http://www.w3.org/2000/svg" xmlns:xlink="http://www.w3.org/1999/xlink" width="250.682pt" height="188.464pt" viewBox="0 0 250.682 188.464" version="1.1">
<defs>
<clipPath id="clip1">
  <path d="M 156 108 L 237 108 L 237 188.464844 L 156 188.464844 Z M 156 108 "/>
</clipPath>
<clipPath id="clip2">
  <path d="M 226 136 L 250.683594 136 L 250.683594 161 L 226 161 Z M 226 136 "/>
</clipPath>
</defs>
<g id="surface1">
<path style=" stroke:none;fill-rule:nonzero;fill:rgb(10.586548%,61.959839%,46.665955%);fill-opacity:1;" d="M 84.363281 148.613281 C 84.363281 132.105469 70.980469 118.722656 54.476562 118.722656 C 37.96875 118.722656 24.585938 132.105469 24.585938 148.613281 C 24.585938 165.121094 37.96875 178.5 54.476562 178.5 C 70.980469 178.5 84.363281 165.121094 84.363281 148.613281 Z M 84.363281 148.613281 "/>
<path style=" stroke:none;fill-rule:nonzero;fill:rgb(49.804688%,49.804688%,49.804688%);fill-opacity:0.5;" d="M 66.429688 173.160156 C 66.429688 166.558594 61.078125 161.207031 54.476562 161.207031 C 47.871094 161.207031 42.519531 166.558594 42.519531 173.160156 C 42.519531 179.765625 47.871094 185.117188 54.476562 185.117188 C 61.078125 185.117188 66.429688 179.765625 66.429688 173.160156 Z M 66.429688 173.160156 "/>
<path style=" stroke:none;fill-rule:nonzero;fill:rgb(49.804688%,49.804688%,49.804688%);fill-opacity:0.5;" d="M 94.777344 173.160156 C 94.777344 166.558594 89.425781 161.207031 82.820312 161.207031 C 76.21875 161.207031 70.867188 166.558594 70.867188 173.160156 C 70.867188 179.765625 76.21875 185.117188 82.820312 185.117188 C 89.425781 185.117188 94.777344 179.765625 94.777344 173.160156 Z M 94.777344 173.160156 "/>
<path style=" stroke:none;fill-rule:nonzero;fill:rgb(49.804688%,49.804688%,49.804688%);fill-opacity:0.5;" d="M 23.910156 148.613281 C 23.910156 142.011719 18.558594 136.65625 11.953125 136.65625 C 5.351562 136.65625 0 142.011719 0 148.613281 C 0 155.214844 5.351562 160.566406 11.953125 160.566406 C 18.558594 160.566406 23.910156 155.214844 23.910156 148.613281 Z M 23.910156 148.613281 "/>
<path style=" stroke:none;fill-rule:nonzero;fill:rgb(49.804688%,49.804688%,49.804688%);fill-opacity:0.5;" d="M 52.257812 148.613281 C 52.257812 142.011719 46.902344 136.65625 40.300781 136.65625 C 33.699219 136.65625 28.347656 142.011719 28.347656 148.613281 C 28.347656 155.214844 33.699219 160.566406 40.300781 160.566406 C 46.902344 160.566406 52.257812 155.214844 52.257812 148.613281 Z M 52.257812 148.613281 "/>
<path style=" stroke:none;fill-rule:nonzero;fill:rgb(49.804688%,49.804688%,49.804688%);fill-opacity:0.5;" d="M 80.605469 148.613281 C 80.605469 142.011719 75.25 136.65625 68.648438 136.65625 C 62.046875 136.65625 56.691406 142.011719 56.691406 148.613281 C 56.691406 155.214844 62.046875 160.566406 68.648438 160.566406 C 75.25 160.566406 80.605469 155.214844 80.605469 148.613281 Z M 80.605469 148.613281 "/>
<path style=" stroke:none;fill-rule:nonzero;fill:rgb(49.804688%,49.804688%,49.804688%);fill-opacity:0.5;" d="M 108.949219 148.613281 C 108.949219 142.011719 103.597656 136.65625 96.996094 136.65625 C 90.390625 136.65625 85.039062 142.011719 85.039062 148.613281 C 85.039062 155.214844 90.390625 160.566406 96.996094 160.566406 C 103.597656 160.566406 108.949219 155.214844 108.949219 148.613281 Z M 108.949219 148.613281 "/>
<path style=" stroke:none;fill-rule:nonzero;fill:rgb(49.804688%,49.804688%,49.804688%);fill-opacity:0.5;" d="M 38.082031 124.066406 C 38.082031 117.460938 32.730469 112.109375 26.128906 112.109375 C 19.523438 112.109375 14.171875 117.460938 14.171875 124.066406 C 14.171875 130.667969 19.523438 136.019531 26.128906 136.019531 C 32.730469 136.019531 38.082031 130.667969 38.082031 124.066406 Z M 38.082031 124.066406 "/>
<path style=" stroke:none;fill-rule:nonzero;fill:rgb(49.804688%,49.804688%,49.804688%);fill-opacity:0.5;" d="M 66.429688 124.066406 C 66.429688 117.460938 61.078125 112.109375 54.476562 112.109375 C 47.871094 112.109375 42.519531 117.460938 42.519531 124.066406 C 42.519531 130.667969 47.871094 136.019531 54.476562 136.019531 C 61.078125 136.019531 66.429688 130.667969 66.429688 124.066406 Z M 66.429688 124.066406 "/>
<path style=" stroke:none;fill-rule:nonzero;fill:rgb(49.804688%,49.804688%,49.804688%);fill-opacity:0.5;" d="M 94.777344 124.066406 C 94.777344 117.460938 89.425781 112.109375 82.820312 112.109375 C 76.21875 112.109375 70.867188 117.460938 70.867188 124.066406 C 70.867188 130.667969 76.21875 136.019531 82.820312 136.019531 C 89.425781 136.019531 94.777344 130.667969 94.777344 124.066406 Z M 94.777344 124.066406 "/>
<g clip-path="url(#clip1)" clip-rule="nonzero">
<path style=" stroke:none;fill-rule:nonzero;fill:rgb(85.096741%,37.255859%,0.782776%);fill-opacity:1;" d="M 236.058594 148.613281 C 236.058594 126.601562 218.21875 108.761719 196.207031 108.761719 C 174.199219 108.761719 156.359375 126.601562 156.359375 148.613281 C 156.359375 170.621094 174.199219 188.464844 196.207031 188.464844 C 218.21875 188.464844 236.058594 170.621094 236.058594 148.613281 Z M 236.058594 148.613281 "/>
</g>
<path style=" stroke:none;fill-rule:nonzero;fill:rgb(49.804688%,49.804688%,49.804688%);fill-opacity:0.5;" d="M 179.816406 173.160156 C 179.816406 166.558594 174.464844 161.207031 167.863281 161.207031 C 161.257812 161.207031 155.90625 166.558594 155.90625 173.160156 C 155.90625 179.765625 161.257812 185.117188 167.863281 185.117188 C 174.464844 185.117188 179.816406 179.765625 179.816406 173.160156 Z M 179.816406 173.160156 "/>
<path style=" stroke:none;fill-rule:nonzero;fill:rgb(49.804688%,49.804688%,49.804688%);fill-opacity:0.5;" d="M 208.164062 173.160156 C 208.164062 166.558594 202.8125 161.207031 196.207031 161.207031 C 189.605469 161.207031 184.253906 166.558594 184.253906 173.160156 C 184.253906 179.765625 189.605469 185.117188 196.207031 185.117188 C 202.8125 185.117188 208.164062 179.765625 208.164062 173.160156 Z M 208.164062 173.160156 "/>
<path style=" stroke:none;fill-rule:nonzero;fill:rgb(49.804688%,49.804688%,49.804688%);fill-opacity:0.5;" d="M 236.511719 173.160156 C 236.511719 166.558594 231.160156 161.207031 224.554688 161.207031 C 217.953125 161.207031 212.601562 166.558594 212.601562 173.160156 C 212.601562 179.765625 217.953125 185.117188 224.554688 185.117188 C 231.160156 185.117188 236.511719 179.765625 236.511719 173.160156 Z M 236.511719 173.160156 "/>
<path style=" stroke:none;fill-rule:nonzero;fill:rgb(49.804688%,49.804688%,49.804688%);fill-opacity:0.5;" d="M 165.644531 148.613281 C 165.644531 142.011719 160.292969 136.65625 153.6875 136.65625 C 147.085938 136.65625 141.734375 142.011719 141.734375 148.613281 C 141.734375 155.214844 147.085938 160.566406 153.6875 160.566406 C 160.292969 160.566406 165.644531 155.214844 165.644531 148.613281 Z M 165.644531 148.613281 "/>
<path style=" stroke:none;fill-rule:nonzero;fill:rgb(49.804688%,49.804688%,49.804688%);fill-opacity:0.5;" d="M 193.992188 148.613281 C 193.992188 142.011719 188.636719 136.65625 182.035156 136.65625 C 175.433594 136.65625 170.082031 142.011719 170.082031 148.613281 C 170.082031 155.214844 175.433594 160.566406 182.035156 160.566406 C 188.636719 160.566406 193.992188 155.214844 193.992188 148.613281 Z M 193.992188 148.613281 "/>
<path style=" stroke:none;fill-rule:nonzero;fill:rgb(49.804688%,49.804688%,49.804688%);fill-opacity:0.5;" d="M 222.335938 148.613281 C 222.335938 142.011719 216.984375 136.65625 210.382812 136.65625 C 203.78125 136.65625 198.425781 142.011719 198.425781 148.613281 C 198.425781 155.214844 203.78125 160.566406 210.382812 160.566406 C 216.984375 160.566406 222.335938 155.214844 222.335938 148.613281 Z M 222.335938 148.613281 "/>
<g clip-path="url(#clip2)" clip-rule="nonzero">
<path style=" stroke:none;fill-rule:nonzero;fill:rgb(49.804688%,49.804688%,49.804688%);fill-opacity:0.5;" d="M 250.683594 148.613281 C 250.683594 142.011719 245.332031 136.65625 238.730469 136.65625 C 232.125 136.65625 226.773438 142.011719 226.773438 148.613281 C 226.773438 155.214844 232.125 160.566406 238.730469 160.566406 C 245.332031 160.566406 250.683594 155.214844 250.683594 148.613281 Z M 250.683594 148.613281 "/>
</g>
<path style=" stroke:none;fill-rule:nonzero;fill:rgb(49.804688%,49.804688%,49.804688%);fill-opacity:0.5;" d="M 179.816406 124.066406 C 179.816406 117.460938 174.464844 112.109375 167.863281 112.109375 C 161.257812 112.109375 155.90625 117.460938 155.90625 124.066406 C 155.90625 130.667969 161.257812 136.019531 167.863281 136.019531 C 174.464844 136.019531 179.816406 130.667969 179.816406 124.066406 Z M 179.816406 124.066406 "/>
<path style=" stroke:none;fill-rule:nonzero;fill:rgb(49.804688%,49.804688%,49.804688%);fill-opacity:0.5;" d="M 208.164062 124.066406 C 208.164062 117.460938 202.8125 112.109375 196.207031 112.109375 C 189.605469 112.109375 184.253906 117.460938 184.253906 124.066406 C 184.253906 130.667969 189.605469 136.019531 196.207031 136.019531 C 202.8125 136.019531 208.164062 130.667969 208.164062 124.066406 Z M 208.164062 124.066406 "/>
<path style=" stroke:none;fill-rule:nonzero;fill:rgb(49.804688%,49.804688%,49.804688%);fill-opacity:0.5;" d="M 236.511719 124.066406 C 236.511719 117.460938 231.160156 112.109375 224.554688 112.109375 C 217.953125 112.109375 212.601562 117.460938 212.601562 124.066406 C 212.601562 130.667969 217.953125 136.019531 224.554688 136.019531 C 231.160156 136.019531 236.511719 130.667969 236.511719 124.066406 Z M 236.511719 124.066406 "/>
<path style=" stroke:none;fill-rule:nonzero;fill:rgb(49.804688%,49.804688%,49.804688%);fill-opacity:0.5;" d="M 151.46875 124.066406 C 151.46875 117.460938 146.117188 112.109375 139.515625 112.109375 C 132.914062 112.109375 127.558594 117.460938 127.558594 124.066406 C 127.558594 130.667969 132.914062 136.019531 139.515625 136.019531 C 146.117188 136.019531 151.46875 130.667969 151.46875 124.066406 Z M 151.46875 124.066406 "/>
<path style=" stroke:none;fill-rule:nonzero;fill:rgb(49.804688%,49.804688%,49.804688%);fill-opacity:0.5;" d="M 222.335938 99.515625 C 222.335938 92.914062 216.984375 87.5625 210.382812 87.5625 C 203.78125 87.5625 198.425781 92.914062 198.425781 99.515625 C 198.425781 106.117188 203.78125 111.472656 210.382812 111.472656 C 216.984375 111.472656 222.335938 106.117188 222.335938 99.515625 Z M 222.335938 99.515625 "/>
<path style=" stroke:none;fill-rule:nonzero;fill:rgb(45.881653%,43.920898%,70.196533%);fill-opacity:1;" d="M 170.945312 59.773438 C 170.945312 26.757812 144.183594 -0.00390625 111.167969 -0.00390625 C 78.152344 -0.00390625 51.390625 26.757812 51.390625 59.773438 C 51.390625 92.789062 78.152344 119.550781 111.167969 119.550781 C 144.183594 119.550781 170.945312 92.789062 170.945312 59.773438 Z M 170.945312 59.773438 "/>
<path style=" stroke:none;fill-rule:nonzero;fill:rgb(49.804688%,49.804688%,49.804688%);fill-opacity:0.5;" d="M 108.949219 99.515625 C 108.949219 92.914062 103.597656 87.5625 96.996094 87.5625 C 90.390625 87.5625 85.039062 92.914062 85.039062 99.515625 C 85.039062 106.117188 90.390625 111.472656 96.996094 111.472656 C 103.597656 111.472656 108.949219 106.117188 108.949219 99.515625 Z M 108.949219 99.515625 "/>
<path style=" stroke:none;fill-rule:nonzero;fill:rgb(49.804688%,49.804688%,49.804688%);fill-opacity:0.5;" d="M 137.296875 99.515625 C 137.296875 92.914062 131.945312 87.5625 125.34375 87.5625 C 118.738281 87.5625 113.386719 92.914062 113.386719 99.515625 C 113.386719 106.117188 118.738281 111.472656 125.34375 111.472656 C 131.945312 111.472656 137.296875 106.117188 137.296875 99.515625 Z M 137.296875 99.515625 "/>
<path style=" stroke:none;fill-rule:nonzero;fill:rgb(49.804688%,49.804688%,49.804688%);fill-opacity:0.5;" d="M 165.644531 99.515625 C 165.644531 92.914062 160.292969 87.5625 153.6875 87.5625 C 147.085938 87.5625 141.734375 92.914062 141.734375 99.515625 C 141.734375 106.117188 147.085938 111.472656 153.6875 111.472656 C 160.292969 111.472656 165.644531 106.117188 165.644531 99.515625 Z M 165.644531 99.515625 "/>
<path style=" stroke:none;fill-rule:nonzero;fill:rgb(49.804688%,49.804688%,49.804688%);fill-opacity:0.5;" d="M 193.992188 50.417969 C 193.992188 43.816406 188.636719 38.464844 182.035156 38.464844 C 175.433594 38.464844 170.082031 43.816406 170.082031 50.417969 C 170.082031 57.023438 175.433594 62.375 182.035156 62.375 C 188.636719 62.375 193.992188 57.023438 193.992188 50.417969 Z M 193.992188 50.417969 "/>
<path style=" stroke:none;fill-rule:nonzero;fill:rgb(49.804688%,49.804688%,49.804688%);fill-opacity:0.5;" d="M 80.605469 99.515625 C 80.605469 92.914062 75.25 87.5625 68.648438 87.5625 C 62.046875 87.5625 56.691406 92.914062 56.691406 99.515625 C 56.691406 106.117188 62.046875 111.472656 68.648438 111.472656 C 75.25 111.472656 80.605469 106.117188 80.605469 99.515625 Z M 80.605469 99.515625 "/>
<path style=" stroke:none;fill-rule:nonzero;fill:rgb(49.804688%,49.804688%,49.804688%);fill-opacity:0.5;" d="M 94.777344 74.96875 C 94.777344 68.363281 89.425781 63.011719 82.820312 63.011719 C 76.21875 63.011719 70.867188 68.363281 70.867188 74.96875 C 70.867188 81.570312 76.21875 86.921875 82.820312 86.921875 C 89.425781 86.921875 94.777344 81.570312 94.777344 74.96875 Z M 94.777344 74.96875 "/>
<path style=" stroke:none;fill-rule:nonzero;fill:rgb(49.804688%,49.804688%,49.804688%);fill-opacity:0.5;" d="M 123.125 74.96875 C 123.125 68.363281 117.769531 63.011719 111.167969 63.011719 C 104.566406 63.011719 99.214844 68.363281 99.214844 74.96875 C 99.214844 81.570312 104.566406 86.921875 111.167969 86.921875 C 117.769531 86.921875 123.125 81.570312 123.125 74.96875 Z M 123.125 74.96875 "/>
<path style=" stroke:none;fill-rule:nonzero;fill:rgb(49.804688%,49.804688%,49.804688%);fill-opacity:0.5;" d="M 151.46875 74.96875 C 151.46875 68.363281 146.117188 63.011719 139.515625 63.011719 C 132.914062 63.011719 127.558594 68.363281 127.558594 74.96875 C 127.558594 81.570312 132.914062 86.921875 139.515625 86.921875 C 146.117188 86.921875 151.46875 81.570312 151.46875 74.96875 Z M 151.46875 74.96875 "/>
<path style=" stroke:none;fill-rule:nonzero;fill:rgb(49.804688%,49.804688%,49.804688%);fill-opacity:0.5;" d="M 179.816406 74.96875 C 179.816406 68.363281 174.464844 63.011719 167.863281 63.011719 C 161.257812 63.011719 155.90625 68.363281 155.90625 74.96875 C 155.90625 81.570312 161.257812 86.921875 167.863281 86.921875 C 174.464844 86.921875 179.816406 81.570312 179.816406 74.96875 Z M 179.816406 74.96875 "/>
<path style=" stroke:none;fill-rule:nonzero;fill:rgb(49.804688%,49.804688%,49.804688%);fill-opacity:0.5;" d="M 66.429688 74.96875 C 66.429688 68.363281 61.078125 63.011719 54.476562 63.011719 C 47.871094 63.011719 42.519531 68.363281 42.519531 74.96875 C 42.519531 81.570312 47.871094 86.921875 54.476562 86.921875 C 61.078125 86.921875 66.429688 81.570312 66.429688 74.96875 Z M 66.429688 74.96875 "/>
<path style=" stroke:none;fill-rule:nonzero;fill:rgb(49.804688%,49.804688%,49.804688%);fill-opacity:0.5;" d="M 108.949219 50.417969 C 108.949219 43.816406 103.597656 38.464844 96.996094 38.464844 C 90.390625 38.464844 85.039062 43.816406 85.039062 50.417969 C 85.039062 57.023438 90.390625 62.375 96.996094 62.375 C 103.597656 62.375 108.949219 57.023438 108.949219 50.417969 Z M 108.949219 50.417969 "/>
<path style=" stroke:none;fill-rule:nonzero;fill:rgb(49.804688%,49.804688%,49.804688%);fill-opacity:0.5;" d="M 137.296875 50.417969 C 137.296875 43.816406 131.945312 38.464844 125.34375 38.464844 C 118.738281 38.464844 113.386719 43.816406 113.386719 50.417969 C 113.386719 57.023438 118.738281 62.375 125.34375 62.375 C 131.945312 62.375 137.296875 57.023438 137.296875 50.417969 Z M 137.296875 50.417969 "/>
<path style=" stroke:none;fill-rule:nonzero;fill:rgb(49.804688%,49.804688%,49.804688%);fill-opacity:0.5;" d="M 165.644531 50.417969 C 165.644531 43.816406 160.292969 38.464844 153.6875 38.464844 C 147.085938 38.464844 141.734375 43.816406 141.734375 50.417969 C 141.734375 57.023438 147.085938 62.375 153.6875 62.375 C 160.292969 62.375 165.644531 57.023438 165.644531 50.417969 Z M 165.644531 50.417969 "/>
<path style=" stroke:none;fill-rule:nonzero;fill:rgb(49.804688%,49.804688%,49.804688%);fill-opacity:0.5;" d="M 80.605469 50.417969 C 80.605469 43.816406 75.25 38.464844 68.648438 38.464844 C 62.046875 38.464844 56.691406 43.816406 56.691406 50.417969 C 56.691406 57.023438 62.046875 62.375 68.648438 62.375 C 75.25 62.375 80.605469 57.023438 80.605469 50.417969 Z M 80.605469 50.417969 "/>
<path style=" stroke:none;fill-rule:nonzero;fill:rgb(49.804688%,49.804688%,49.804688%);fill-opacity:0.5;" d="M 94.777344 25.871094 C 94.777344 19.269531 89.425781 13.917969 82.820312 13.917969 C 76.21875 13.917969 70.867188 19.269531 70.867188 25.871094 C 70.867188 32.472656 76.21875 37.828125 82.820312 37.828125 C 89.425781 37.828125 94.777344 32.472656 94.777344 25.871094 Z M 94.777344 25.871094 "/>
<path style=" stroke:none;fill-rule:nonzero;fill:rgb(49.804688%,49.804688%,49.804688%);fill-opacity:0.5;" d="M 123.125 25.871094 C 123.125 19.269531 117.769531 13.917969 111.167969 13.917969 C 104.566406 13.917969 99.214844 19.269531 99.214844 25.871094 C 99.214844 32.472656 104.566406 37.828125 111.167969 37.828125 C 117.769531 37.828125 123.125 32.472656 123.125 25.871094 Z M 123.125 25.871094 "/>
<path style=" stroke:none;fill-rule:nonzero;fill:rgb(49.804688%,49.804688%,49.804688%);fill-opacity:0.5;" d="M 151.46875 25.871094 C 151.46875 19.269531 146.117188 13.917969 139.515625 13.917969 C 132.914062 13.917969 127.558594 19.269531 127.558594 25.871094 C 127.558594 32.472656 132.914062 37.828125 139.515625 37.828125 C 146.117188 37.828125 151.46875 32.472656 151.46875 25.871094 Z M 151.46875 25.871094 "/>
<path style=" stroke:none;fill-rule:nonzero;fill:rgb(49.804688%,49.804688%,49.804688%);fill-opacity:0.5;" d="M 66.429688 25.871094 C 66.429688 19.269531 61.078125 13.917969 54.476562 13.917969 C 47.871094 13.917969 42.519531 19.269531 42.519531 25.871094 C 42.519531 32.472656 47.871094 37.828125 54.476562 37.828125 C 61.078125 37.828125 66.429688 32.472656 66.429688 25.871094 Z M 66.429688 25.871094 "/>
<path style="fill:none;stroke-width:9.96277;stroke-linecap:butt;stroke-linejoin:miter;stroke:rgb(90.586853%,16.07666%,54.116821%);stroke-opacity:1;stroke-miterlimit:10;" d="M 28.348562 24.547719 C 28.348562 24.547719 26.043875 113.387563 85.039969 113.387563 C 144.036063 113.387563 170.079031 24.547719 170.079031 24.547719 " transform="matrix(1,0,0,-1,26.128,173.161)"/>
</g>
</svg>
