<?xml version="1.0" encoding="UTF-8" standalone="no"?>
<!-- Created with Inkscape (http://www.inkscape.org/) -->

<svg
   width="140.6357mm"
   height="140.63573mm"
   viewBox="0 0 140.6357 140.63573"
   version="1.1"
   id="svg5"
   sodipodi:docname="arxiv_logo_bw.svg"
   inkscape:version="1.1.1 (3bf5ae0d25, 2021-09-20, custom)"
   xmlns:inkscape="http://www.inkscape.org/namespaces/inkscape"
   xmlns:sodipodi="http://sodipodi.sourceforge.net/DTD/sodipodi-0.dtd"
   xmlns="http://www.w3.org/2000/svg"
   xmlns:svg="http://www.w3.org/2000/svg">
  <sodipodi:namedview
     id="namedview7"
     pagecolor="#ffffff"
     bordercolor="#666666"
     borderopacity="1.0"
     inkscape:pageshadow="2"
     inkscape:pageopacity="0.0"
     inkscape:pagecheckerboard="0"
     inkscape:document-units="mm"
     showgrid="false"
     inkscape:zoom="0.6137977"
     inkscape:cx="-310.36284"
     inkscape:cy="366.57029"
     inkscape:window-width="1906"
     inkscape:window-height="1036"
     inkscape:window-x="0"
     inkscape:window-y="0"
     inkscape:window-maximized="1"
     inkscape:current-layer="layer1" />
  <defs
     id="defs2" />
  <g
     inkscape:label="Layer 1"
     inkscape:groupmode="layer"
     id="layer1"
     transform="translate(-31.831546,-28.180857)">
    <path
       style="fill:#999999;stroke-width:0.264583;fill-opacity:0.50385004"
       d="m 66.207856,147.80171 c 3.563033,-3.56526 6.561545,-6.48229 6.66336,-6.48229 0.101816,0 1.23382,0.63803 2.515568,1.41784 4.454441,2.71008 8.797135,4.52931 13.972115,5.85315 4.821074,1.23332 7.743434,1.57746 13.229161,1.55791 9.75373,-0.0348 18.6023,-2.53559 26.6648,-7.53611 1.14642,-0.71103 2.16519,-1.29279 2.26392,-1.29279 0.0987,0 3.09471,2.91703 6.65774,6.48229 l 6.47825,6.48229 H 102.19119 59.729614 Z M 46.364104,98.456907 V 55.995334 l 6.482292,6.478241 c 3.565261,3.563033 6.482293,6.559019 6.482293,6.657748 0,0.09873 -0.581758,1.117492 -1.292795,2.263921 -5.022541,8.098002 -7.545782,17.102372 -7.54626,26.929373 -2.56e-4,5.264703 0.359764,8.241313 1.568057,12.964593 1.323846,5.17498 3.143074,9.51767 5.853154,13.97211 0.779814,1.28175 1.417844,2.41375 1.417844,2.51557 0,0.10181 -2.917032,3.10033 -6.482293,6.66336 l -6.482292,6.47824 z m 105.216336,35.763243 -6.57014,-6.57408 1.10328,-1.69614 c 1.73376,-2.66543 4.1221,-7.751 5.26979,-11.22114 4.82597,-14.59175 3.02066,-30.089712 -5.06572,-43.487568 l -1.33541,-2.212562 6.50733,-6.50733 c 3.57903,-3.579032 6.57203,-6.442623 6.65112,-6.363536 0.0791,0.07909 0.11366,19.154638 0.0768,42.390113 l -0.067,42.246333 z m -54.995107,5.06644 c 0.19099,-0.0764 0.4192,-0.067 0.50712,0.0209 0.0879,0.0879 -0.0683,0.15045 -0.34727,0.13896 -0.30822,-0.0127 -0.37092,-0.0754 -0.15985,-0.15985 z m 7.143747,0 c 0.19099,-0.0764 0.4192,-0.067 0.50712,0.0209 0.0879,0.0879 -0.0683,0.15045 -0.34727,0.13896 -0.30822,-0.0127 -0.37092,-0.0754 -0.15985,-0.15985 z m -34.223878,-12.5854 -1.312971,-1.38907 1.389063,1.31298 c 1.29074,1.22003 1.5104,1.46515 1.312971,1.46515 -0.04185,0 -0.66693,-0.62508 -1.389063,-1.38906 z m 58.350568,-9.59115 c 0.34178,-0.3638 0.68094,-0.66146 0.7537,-0.66146 0.0728,0 -0.14734,0.29766 -0.48911,0.66146 -0.34178,0.3638 -0.68094,0.66146 -0.7537,0.66146 -0.0728,0 0.14734,-0.29766 0.48911,-0.66146 z m -51.362914,-0.0661 c -0.329107,-0.41964 -0.319749,-0.429 0.0999,-0.0999 0.254662,0.19972 0.463021,0.40808 0.463021,0.46302 0,0.21776 -0.217273,0.0776 -0.562917,-0.36313 z m 5.046592,-3.96875 -0.9118,-0.99218 0.992188,0.9118 c 0.923507,0.84868 1.11384,1.07257 0.911799,1.07257 -0.04421,0 -0.490699,-0.44648 -0.992187,-0.99219 z m 40.495492,0.8923 c 0,-0.0549 0.20836,-0.2633 0.46302,-0.46302 0.41965,-0.32911 0.429,-0.31975 0.0999,0.0999 -0.34565,0.44073 -0.56292,0.58089 -0.56292,0.36313 z m 21.74742,-15.378233 c 0.005,-0.43657 0.0647,-0.58313 0.13177,-0.3257 0.0671,0.25743 0.0627,0.61462 -0.01,0.79375 -0.0725,0.17913 -0.12736,-0.0315 -0.12197,-0.46805 z m 0,-5.29167 c 0.005,-0.43656 0.0647,-0.58313 0.13177,-0.3257 0.0671,0.25744 0.0627,0.61462 -0.01,0.79375 -0.0725,0.17914 -0.12736,-0.0315 -0.12197,-0.46805 z m -50.261036,-8.59901 c 0,-0.509323 0.05445,-0.717682 0.121002,-0.463021 0.06655,0.254662 0.06655,0.67138 0,0.926042 -0.06655,0.254661 -0.121002,0.0463 -0.121002,-0.463021 z m 28.045836,0 c 0,-0.509323 0.0545,-0.717682 0.121,-0.463021 0.0666,0.254662 0.0666,0.67138 0,0.926042 -0.0665,0.254661 -0.121,0.0463 -0.121,-0.463021 z m 11.54653,-17.396355 c -0.32911,-0.419645 -0.31975,-0.429004 0.0999,-0.0999 0.44073,0.345643 0.58088,0.562917 0.36312,0.562917 -0.0549,0 -0.2633,-0.20836 -0.46302,-0.463021 z M 66.340147,48.979825 59.729532,42.365241 h 42.397498 c 23.31862,0 42.39749,0.09021 42.39749,0.200462 0,0.110255 -2.90401,3.102669 -6.45337,6.649808 l -6.45338,6.449345 -2.21173,-1.334905 c -13.39696,-8.08585 -28.89536,-9.891062 -43.486725,-5.065217 -3.454088,1.14238 -8.553535,3.534533 -11.187573,5.248095 -0.914416,0.594868 -1.689214,1.081579 -1.721776,1.081579 -0.03256,0 -3.03398,-2.976562 -6.669819,-6.614583 z"
       id="path866" />
    <path
       style="fill:#909090;stroke-width:0.264583"
       d="m 46.843662,168.65535 c 0.190996,-0.0764 0.419199,-0.067 0.507118,0.0209 0.08792,0.0879 -0.06835,0.15045 -0.347266,0.13897 -0.308224,-0.0127 -0.370919,-0.0754 -0.159852,-0.15985 z m 106.891668,0 c 0.191,-0.0764 0.4192,-0.067 0.50712,0.0209 0.0879,0.0879 -0.0684,0.15045 -0.34726,0.13897 -0.30823,-0.0127 -0.37092,-0.0754 -0.15986,-0.15985 z m -5.52088,-2.92812 -0.9118,-0.99219 0.99219,0.9118 c 0.9235,0.84868 1.11384,1.07258 0.9118,1.07258 -0.0442,0 -0.4907,-0.44649 -0.99219,-0.99219 z m 14.56633,0.0662 c 0.49365,-0.50933 0.95708,-0.92604 1.02984,-0.92604 0.0728,0 -0.27161,0.41671 -0.76526,0.92604 -0.49365,0.50932 -0.95709,0.92604 -1.02985,0.92604 -0.0728,0 0.27161,-0.41672 0.76527,-0.92604 z m -121.336606,0.0661 -0.504028,-0.59531 0.595312,0.50403 c 0.559447,0.47366 0.715762,0.6866 0.504028,0.6866 -0.05021,0 -0.318097,-0.26789 -0.595312,-0.59532 z m 5.909156,-0.56296 c -1.453882,-0.4027 -2.815194,-1.30117 -3.671635,-2.42329 -0.485099,-0.63559 -0.500719,-0.70271 -0.08248,-0.35449 0.862593,0.7182 2.464519,1.08956 4.218274,0.97789 3.065891,-0.19522 5.372686,-2.25124 6.031951,-5.37621 0.1842,-0.87312 0.507347,-1.85275 0.718104,-2.17695 0.378288,-0.58189 0.389012,-0.57512 0.837597,0.52917 0.652907,1.60728 0.601504,3.50095 -0.138149,5.08929 -1.406878,3.02115 -4.766093,4.60642 -7.913658,3.73459 z m 106.5639,0.12821 c -2.4684,-0.62771 -4.36202,-2.36924 -5.03304,-4.6288 -0.49074,-1.65251 -0.48877,-2.11766 0.0162,-3.81811 0.57795,-1.94617 1.22688,-1.74688 1.56674,0.48114 0.4084,2.67727 1.94404,4.74468 4.23545,5.70209 1.17932,0.49275 3.8646,0.49273 5.04397,-4e-5 1.16016,-0.48475 1.18163,-0.10957 0.0434,0.75859 -1.68788,1.28741 -4.19854,1.93087 -5.87274,1.50513 z m -8.57807,-5.47427 c 0.0127,-0.30823 0.0754,-0.37092 0.15985,-0.15986 0.0764,0.191 0.067,0.4192 -0.0209,0.50712 -0.0879,0.0879 -0.15045,-0.0684 -0.13897,-0.34726 z m 23.52703,-1.25137 c 0,-0.0455 0.38696,-0.43249 0.8599,-0.8599 l 0.8599,-0.7771 -0.77711,0.85989 c -0.72437,0.80155 -0.94269,0.98151 -0.94269,0.77711 z m -134.301183,-0.77711 -0.504029,-0.59531 0.595313,0.50403 c 0.559447,0.47366 0.715762,0.6866 0.504028,0.6866 -0.05021,0 -0.318097,-0.2679 -0.595312,-0.59532 z m 0.483397,-6.54844 c 0,-0.50932 0.05445,-0.71768 0.121,-0.46302 0.06655,0.25467 0.06655,0.67138 0,0.92605 -0.06655,0.25466 -0.121,0.0463 -0.121,-0.46303 z m 21.028942,-0.96434 c -0.08196,-0.70654 -0.221708,-1.52274 -0.310549,-1.81378 -0.130291,-0.42683 0.956403,-1.64481 5.619062,-6.29792 l 5.78059,-5.76874 1.121299,1.00624 1.121296,1.00625 -6.59134,6.57628 -6.591339,6.57629 z m 85.445074,-5.34351 -6.57398,-6.57944 1.23377,-1.01099 1.23378,-1.01098 5.78701,5.78253 c 4.79227,4.78856 5.7444,5.86216 5.53909,6.24578 -0.13636,0.25478 -0.33742,1.06834 -0.44681,1.80789 l -0.19888,1.34465 z m -109.689512,4.56602 c 0.0127,-0.30823 0.07539,-0.37092 0.159853,-0.15986 0.07643,0.191 0.06703,0.4192 -0.02089,0.50712 -0.08792,0.0879 -0.150452,-0.0683 -0.138964,-0.34726 z m 8.39617,-8.22849 c 0.190996,-0.0764 0.419199,-0.067 0.507118,0.0209 0.08792,0.0879 -0.06835,0.15045 -0.347266,0.13896 -0.308224,-0.0127 -0.370919,-0.0754 -0.159852,-0.15985 z M 163.17451,98.324617 c 0,-23.719895 0.0312,-33.384334 0.0693,-21.47653 0.0381,11.907807 0.0381,31.315003 -1e-5,43.127093 -0.0381,11.81209 -0.0693,2.06934 -0.0693,-21.650563 z M 63.528272,132.9189 c -0.329107,-0.41965 -0.319749,-0.42901 0.0999,-0.0999 0.254662,0.19972 0.463021,0.40808 0.463021,0.46302 0,0.21776 -0.217273,0.0776 -0.562917,-0.36312 z m 77.292088,-0.16605 c 0,-0.0549 0.20836,-0.2633 0.46302,-0.46302 0.41964,-0.3291 0.429,-0.31975 0.0999,0.0999 -0.34565,0.44073 -0.56292,0.58089 -0.56292,0.36312 z M 55.49223,59.033992 c -6.494376,-6.498276 -6.594366,-6.614788 -5.686557,-6.626197 0.508231,-0.0064 1.359576,-0.167182 1.891878,-0.35732 l 0.967821,-0.345707 5.759206,5.763674 5.759207,5.763673 -0.990052,1.20823 c -0.544531,0.664528 -1.012743,1.208231 -1.040472,1.208231 -0.02773,0 -3.025193,-2.976563 -6.661031,-6.614584 z m 85.80667,5.47039 -0.96386,-1.153091 5.77584,-5.771367 5.77585,-5.771369 1.14754,0.299197 c 0.63115,0.164559 1.41801,0.331766 1.74857,0.371573 0.49906,0.0601 -0.51199,1.184095 -5.95952,6.625263 l -6.56055,6.552886 z m -2.60945,-2.758411 -0.9118,-0.992187 0.99219,0.911799 c 0.5457,0.501489 0.99218,0.947973 0.99218,0.992187 0,0.202042 -0.22389,0.01172 -1.07257,-0.911799 z M 67.795356,59.727846 c 0,-0.05494 0.208359,-0.2633 0.463021,-0.463021 0.419645,-0.329107 0.429003,-0.319749 0.0999,0.0999 -0.345644,0.44073 -0.562917,0.580888 -0.562917,0.363125 z m 67.575904,-1.024583 -0.50403,-0.595313 0.59532,0.504029 c 0.55944,0.473662 0.71576,0.686596 0.50402,0.686596 -0.0502,0 -0.31809,-0.26789 -0.59531,-0.595312 z M 40.493661,55.149085 c 0.190996,-0.07643 0.419199,-0.06703 0.507118,0.02088 0.08792,0.08792 -0.06835,0.150453 -0.347265,0.138965 -0.308225,-0.0127 -0.37092,-0.07539 -0.159853,-0.159851 z m -5.785467,-2.928114 -0.911799,-0.992188 0.992188,0.911798 c 0.923506,0.848682 1.113839,1.072577 0.911798,1.072577 -0.04421,0 -0.490698,-0.446484 -0.992187,-0.992187 z m 5.033225,-0.472531 c -3.321531,-1.023918 -5.356082,-4.79681 -4.386063,-8.133559 0.411144,-1.414286 1.794293,-3.63089 2.265657,-3.63089 0.137182,0 0.0769,0.412894 -0.133952,0.917543 -0.538222,1.288147 -0.48112,4.001076 0.111682,5.306037 0.55221,1.215605 1.848522,2.602362 2.979191,3.187054 0.424743,0.219643 1.453905,0.524823 2.287027,0.678179 2.555885,0.47047 2.843895,1.069494 0.805288,1.674895 -1.64369,0.488124 -2.347357,0.488257 -3.92883,7.41e-4 z m 120.856541,-0.0014 c -0.69122,-0.221089 -1.25677,-0.497321 -1.25677,-0.613849 0,-0.339511 1.09132,-0.815851 2.42481,-1.058388 2.7996,-0.509192 4.92043,-2.600377 5.50442,-5.427497 0.26986,-1.306381 0.10741,-2.462162 -0.63686,-4.531027 -0.10841,-0.30135 0.27416,-0.03051 0.88862,0.629095 1.07731,1.156447 1.87318,3.081272 1.87318,4.530281 0,1.373028 -0.82643,3.474229 -1.78282,4.532843 -1.82432,2.019297 -4.47331,2.751372 -7.01458,1.938542 z M 33.928687,38.561179 c 0,-0.05494 0.208359,-0.263302 0.463021,-0.463021 0.419644,-0.329107 0.429002,-0.319749 0.09989,0.0999 -0.345643,0.440729 -0.562915,0.580887 -0.562915,0.363126 z m 1.058333,-1.058333 c 0,-0.05494 0.20836,-0.263302 0.463021,-0.463021 0.419644,-0.329108 0.429002,-0.31975 0.09989,0.09989 -0.345644,0.440729 -0.562916,0.580887 -0.562916,0.363126 z m 67.18492,-0.09814 c 40.51279,-0.06443 42.85067,-0.09328 42.97961,-0.530366 0.10557,-0.35791 0.12403,-0.342802 0.0818,0.06694 -0.0543,0.526762 -0.2496,0.529172 -42.97961,0.530366 l -42.925029,0.0012 42.843259,-0.06814 z m 56.13181,-0.220889 c 0.0127,-0.308225 0.0754,-0.37092 0.15985,-0.159853 0.0764,0.190996 0.067,0.4192 -0.0209,0.507118 -0.0879,0.08792 -0.15045,-0.06835 -0.13896,-0.347265 z m 0.24369,-1.003888 c 0,-0.05494 0.20836,-0.263302 0.46302,-0.463021 0.41965,-0.329108 0.42901,-0.319749 0.0999,0.0999 -0.34564,0.440729 -0.56292,0.580887 -0.56292,0.363126 z M 41.866187,31.682012 c 0,-0.05494 0.20836,-0.263302 0.463021,-0.463021 0.419644,-0.329108 0.429003,-0.319749 0.09989,0.09989 -0.345643,0.440729 -0.562916,0.580887 -0.562916,0.363126 z m 105.304173,0 c 0,-0.05494 0.20836,-0.263302 0.46302,-0.463021 0.41964,-0.329108 0.429,-0.319749 0.0999,0.09989 -0.34565,0.440729 -0.56292,0.580887 -0.56292,0.363126 z M 48.166578,31.336583 c 0.190997,-0.07643 0.4192,-0.06703 0.507119,0.02089 0.08792,0.08792 -0.06835,0.150452 -0.347266,0.138964 -0.308225,-0.0127 -0.370919,-0.07539 -0.159853,-0.159853 z m 107.685422,0 c 0.19099,-0.07643 0.4192,-0.06703 0.50712,0.02089 0.0879,0.08792 -0.0684,0.150452 -0.34727,0.138964 -0.30822,-0.0127 -0.37092,-0.07539 -0.15985,-0.159853 z M 42.924521,30.623678 c 0,-0.05494 0.208359,-0.263301 0.463021,-0.46302 0.419644,-0.329108 0.429002,-0.31975 0.09989,0.09989 -0.345643,0.44073 -0.562915,0.580888 -0.562915,0.363126 z m 105.304169,0 c 0,-0.05494 0.20836,-0.263301 0.46302,-0.46302 0.41965,-0.329108 0.42901,-0.31975 0.0999,0.09989 -0.34564,0.44073 -0.56292,0.580888 -0.56292,0.363126 z"
       id="path864" />
    <path
       style="fill:#709445;stroke-width:0.264583"
       d="m 80.826086,154.35017 c 11.750808,-0.0381 30.979404,-0.0381 42.730204,0 11.75081,0.0381 2.13651,0.0693 -21.3651,0.0693 -23.501615,0 -33.115912,-0.0312 -21.365104,-0.0693 z m 19.185374,-4.22205 c 0.32912,-0.0633 0.80537,-0.0609 1.05833,0.005 0.25297,0.0662 -0.0163,0.118 -0.59839,0.11506 -0.582087,-0.003 -0.789057,-0.0571 -0.45994,-0.1204 z m 3.4365,5.3e-4 c 0.32742,-0.0631 0.8632,-0.0631 1.19062,0 0.32743,0.0631 0.0595,0.11466 -0.59531,0.11466 -0.65484,0 -0.92273,-0.0516 -0.59531,-0.11466 z m 4.24987,-0.2586 c 0.19099,-0.0764 0.4192,-0.067 0.50712,0.0209 0.0879,0.0879 -0.0683,0.15045 -0.34727,0.13896 -0.30822,-0.0127 -0.37092,-0.0754 -0.15985,-0.15985 z M 46.228639,98.456907 c 0,-23.501612 0.03118,-33.115909 0.0693,-21.365101 0.03811,11.750808 0.03811,30.979404 0,42.730214 -0.03811,11.75081 -0.0693,2.13651 -0.0693,-21.365113 z M 151.534,134.3741 l -6.6126,-6.68073 6.68073,6.6126 c 6.20808,6.14477 6.79997,6.74886 6.6126,6.74886 -0.0375,0 -3.0438,-3.00632 -6.68073,-6.68073 z m 2.29272,-32.74219 c 0,-0.3638 0.06,-0.51263 0.13345,-0.33072 0.0734,0.1819 0.0734,0.47955 0,0.66145 -0.0734,0.1819 -0.13345,0.0331 -0.13345,-0.33073 z m -103.421802,-1.5875 c 0,-0.654843 0.0516,-0.922733 0.114662,-0.595313 0.06306,0.32742 0.06306,0.863213 0,1.190633 -0.06306,0.32742 -0.114662,0.0595 -0.114662,-0.59532 z m 0,-3.439583 c 0,-0.65484 0.0516,-0.92273 0.114662,-0.59531 0.06306,0.32742 0.06306,0.8632 0,1.19062 -0.06306,0.32743 -0.114662,0.0595 -0.114662,-0.59531 z m 103.421802,-1.32292 c 0,-0.3638 0.06,-0.51263 0.13345,-0.33073 0.0734,0.18191 0.0734,0.47956 0,0.66146 -0.0734,0.1819 -0.13345,0.0331 -0.13345,-0.33073 z m -87.75314,-46.368228 -6.6126,-6.68073 6.68073,6.612599 c 6.208078,6.144766 6.799975,6.74886 6.612599,6.74886 -0.03747,0 -3.043801,-3.006328 -6.680729,-6.680729 z m 32.611883,-2.22575 c 0.1819,-0.0734 0.47956,-0.0734 0.66146,0 0.1819,0.0734 0.0331,0.133452 -0.33073,0.133452 -0.3638,0 -0.51263,-0.06005 -0.33073,-0.133452 z m 6.349997,0 c 0.1819,-0.0734 0.47956,-0.0734 0.66146,0 0.1819,0.0734 0.0331,0.133452 -0.33073,0.133452 -0.3638,0 -0.51263,-0.06005 -0.33073,-0.133452 z"
       id="path862" />
    <path
       style="fill:#5b5b5b;stroke-width:0.264583;fill-opacity:0.49830449"
       d="m 95.486233,143.03708 c -7.148721,-1.16122 -13.652341,-3.82309 -19.621085,-8.03074 -2.722586,-1.91927 -8.30411,-7.5008 -10.223387,-10.22338 -3.406794,-4.8327 -5.73092,-9.85412 -7.136091,-15.41798 -0.969105,-3.83724 -0.967278,-4.6879 0.003,-1.37867 4.615064,15.7408 17.073169,27.18886 33.452614,30.74046 2.304307,0.49964 3.503719,0.58313 8.377866,0.58313 4.90975,0 6.06888,-0.0818 8.46667,-0.59771 11.91078,-2.56259 21.70983,-9.21651 28.11128,-19.08861 6.69466,-10.32427 8.7296,-22.845973 5.63878,-34.697355 -2.64815,-10.154022 -9.30941,-19.520016 -17.94121,-25.226047 -0.83675,-0.55313 -1.52136,-1.05973 -1.52136,-1.125778 0,-0.202626 2.94244,1.516208 4.80793,2.808571 18.07632,12.522791 24.47179,36.551656 15.00824,56.388529 -4.30117,9.01584 -12.33591,17.10018 -21.13938,21.2699 -3.10984,1.47295 -7.23497,2.86232 -10.71533,3.60898 -3.48361,0.74736 -12.039827,0.95988 -15.568497,0.3867 z m 4.39489,-15.65935 c 0.257427,-0.0671 0.614617,-0.0627 0.793747,0.01 0.17913,0.0725 -0.0315,0.12736 -0.46806,0.12197 -0.436557,-0.005 -0.583117,-0.0647 -0.325687,-0.13178 z m 4.360587,0.008 c 0.1819,-0.0734 0.47956,-0.0734 0.66146,0 0.1819,0.0734 0.0331,0.13346 -0.33073,0.13346 -0.3638,0 -0.51263,-0.0601 -0.33073,-0.13346 z m -4.745957,-6.09093 c 0.19099,-0.0764 0.4192,-0.067 0.507107,0.0209 0.0879,0.0879 -0.0683,0.15045 -0.347257,0.13896 -0.30823,-0.0127 -0.37092,-0.0754 -0.15985,-0.15985 z m 5.291657,0 c 0.191,-0.0764 0.4192,-0.067 0.50712,0.0209 0.0879,0.0879 -0.0683,0.15045 -0.34726,0.13896 -0.30823,-0.0127 -0.37092,-0.0754 -0.15986,-0.15985 z m -23.253746,-12.98228 -0.641432,-0.7276 0.727604,0.64143 c 0.680056,0.59952 0.84894,0.81378 0.641432,0.81378 -0.04739,0 -0.374814,-0.32742 -0.727604,-0.72761 z m 41.824196,-0.46302 c 0.49365,-0.50932 0.95708,-0.92604 1.02984,-0.92604 0.0728,0 -0.27161,0.41672 -0.76526,0.92604 -0.49365,0.50933 -0.95709,0.92605 -1.02985,0.92605 -0.0728,0 0.27161,-0.41672 0.76527,-0.92605 z m -65.860367,-3.19704 c 0.0127,-0.30823 0.07539,-0.37092 0.159853,-0.15986 0.07643,0.191 0.06703,0.4192 -0.02089,0.50712 -0.08792,0.0879 -0.150453,-0.0684 -0.138965,-0.34726 z m -0.264583,-2.38125 c 0.0127,-0.30823 0.07539,-0.37092 0.159852,-0.15986 0.07643,0.191 0.06703,0.4192 -0.02089,0.50712 -0.08792,0.0879 -0.150453,-0.0683 -0.138965,-0.34726 z m 0,-7.672923 c 0.0127,-0.30823 0.07539,-0.37092 0.159852,-0.15986 0.07643,0.191 0.06703,0.4192 -0.02089,0.50712 -0.08792,0.0879 -0.150453,-0.0683 -0.138965,-0.34726 z m 30.885755,-20.3992 c 0.190994,-0.07643 0.419198,-0.06703 0.507119,0.02088 0.08792,0.08792 -0.06835,0.150453 -0.347266,0.138965 -0.308226,-0.0127 -0.370919,-0.07539 -0.159853,-0.159851 z m 28.045835,0 c 0.19099,-0.07643 0.4192,-0.06703 0.50712,0.02088 0.0879,0.08792 -0.0684,0.150453 -0.34727,0.138965 -0.30823,-0.0127 -0.37092,-0.07539 -0.15985,-0.159851 z"
       id="path860" />
    <path
       style="fill:#5a5f1d;stroke-width:0.264583"
       d="m 55.624522,166.09036 c 0,-0.0549 0.208359,-0.2633 0.463021,-0.46302 0.419644,-0.32911 0.429002,-0.31975 0.09989,0.0999 -0.345643,0.44073 -0.562915,0.58089 -0.562915,0.36313 z m -1.719792,-2.54594 c 0.263389,-0.29104 0.53842,-0.52917 0.611181,-0.52917 0.07276,0 -0.08321,0.23813 -0.346598,0.52917 -0.263389,0.29104 -0.53842,0.52917 -0.611181,0.52917 -0.07276,0 0.08321,-0.23813 0.346598,-0.52917 z m 113.50625,-7.67292 c 0.2634,-0.29104 0.53843,-0.52916 0.61119,-0.52916 0.0728,0 -0.0832,0.23812 -0.3466,0.52916 -0.26339,0.29104 -0.53842,0.52917 -0.61118,0.52917 -0.0728,0 0.0832,-0.23813 0.34659,-0.52917 z m -29.37073,-8.26823 -6.6126,-6.68073 6.68073,6.6126 c 3.6744,3.63693 6.68073,6.64326 6.68073,6.68073 0,0.18738 -0.6041,-0.40452 -6.74886,-6.6126 z M 31.884083,151.109 c 0,-0.65484 0.0516,-0.92273 0.114662,-0.59531 0.06306,0.32742 0.06306,0.8632 0,1.19062 -0.06306,0.32743 -0.114662,0.0595 -0.114662,-0.59531 z m 69.844087,-0.97613 c 0.25466,-0.0666 0.67138,-0.0666 0.92604,0 0.25466,0.0666 0.0463,0.121 -0.46302,0.121 -0.50932,0 -0.71768,-0.0545 -0.46302,-0.121 z m -4.613667,-0.26294 c 0.19099,-0.0764 0.41919,-0.067 0.50711,0.0209 0.0879,0.0879 -0.0684,0.15046 -0.34726,0.13897 -0.30823,-0.0127 -0.37092,-0.0754 -0.15985,-0.15985 z m 9.789577,0 c 0.19099,-0.0764 0.4192,-0.067 0.50712,0.0209 0.0879,0.0879 -0.0683,0.15046 -0.34727,0.13897 -0.30822,-0.0127 -0.37092,-0.0754 -0.15985,-0.15985 z m 60.48177,-3.06041 -0.50403,-0.59531 0.59531,0.50403 c 0.32742,0.27721 0.59531,0.5451 0.59531,0.59531 0,0.21173 -0.21293,0.0554 -0.68659,-0.50403 z M 41.270875,144.84836 c 0.181901,-0.0734 0.479557,-0.0734 0.661458,0 0.181901,0.0734 0.03307,0.13345 -0.330729,0.13345 -0.363802,0 -0.51263,-0.0601 -0.330729,-0.13345 z m 121.179175,0 c 0.1819,-0.0734 0.47955,-0.0734 0.66146,0 0.1819,0.0734 0.0331,0.13345 -0.33073,0.13345 -0.36381,0 -0.51263,-0.0601 -0.33073,-0.13345 z m 7.05246,-0.68467 -0.50402,-0.59531 0.59531,0.50402 c 0.32742,0.27722 0.59531,0.54511 0.59531,0.59532 0,0.21173 -0.21293,0.0554 -0.6866,-0.50403 z m -20.74668,-6.48229 -6.48026,-6.54844 6.54843,6.48027 c 3.60165,3.56414 6.54844,6.51094 6.54844,6.54843 0,0.18744 -0.59487,-0.39518 -6.61661,-6.48026 z m -47.42454,5.82787 c 0.47295,-0.0587 1.24685,-0.0587 1.71979,0 0.47295,0.0587 0.086,0.10671 -0.85989,0.10671 -0.94589,0 -1.33284,-0.048 -0.8599,-0.10671 z m 35.7849,-7.08464 c 0.34178,-0.36381 0.68094,-0.66146 0.7537,-0.66146 0.0728,0 -0.14734,0.29765 -0.48912,0.66146 -0.34177,0.3638 -0.68094,0.66145 -0.7537,0.66145 -0.0728,0 0.14735,-0.29765 0.48912,-0.66145 z m -71.313491,-1.25678 -1.579218,-1.65364 1.653646,1.57922 c 0.909505,0.86857 1.653646,1.61271 1.653646,1.65364 0,0.1955 -0.261115,-0.0431 -1.728074,-1.57922 z m 74.356201,-1.78593 c 0.26339,-0.29104 0.53842,-0.52917 0.61118,-0.52917 0.0728,0 -0.0832,0.23813 -0.3466,0.52917 -0.26339,0.29104 -0.53842,0.52916 -0.61118,0.52916 -0.0728,0 0.0832,-0.23812 0.3466,-0.52916 z M 73.053273,132.9189 c -0.329108,-0.41965 -0.319749,-0.42901 0.0999,-0.0999 0.440729,0.34564 0.580887,0.56292 0.363125,0.56292 -0.05494,0 -0.263301,-0.20836 -0.463021,-0.46302 z m -10.583334,-1.32292 c -0.329108,-0.41965 -0.319749,-0.429 0.0999,-0.0999 0.254661,0.19972 0.463021,0.40808 0.463021,0.46302 0,0.21777 -0.217274,0.0776 -0.562917,-0.36312 z m 71.471251,-1.25677 c 0.93748,-0.94589 1.76404,-1.71979 1.8368,-1.71979 0.0728,0 -0.63474,0.7739 -1.57222,1.71979 -0.93747,0.94588 -1.76403,1.71979 -1.83679,1.71979 -0.0728,0 0.63473,-0.77391 1.57221,-1.71979 z m -63.778826,-0.0662 -0.9118,-0.99219 0.992188,0.9118 c 0.923507,0.84868 1.11384,1.07258 0.911799,1.07258 -0.04421,0 -0.490699,-0.44648 -0.992187,-0.99219 z m -2.665342,-2.91041 c -0.329107,-0.41965 -0.319749,-0.42901 0.0999,-0.0999 0.254662,0.19972 0.463021,0.40808 0.463021,0.46302 0,0.21776 -0.217273,0.0776 -0.562917,-0.36312 z m 34.098858,0.007 c 0.47294,-0.0587 1.24685,-0.0587 1.71979,0 0.47294,0.0587 0.086,0.10672 -0.8599,0.10672 -0.94588,0 -1.33284,-0.048 -0.85989,-0.10672 z m -2.893877,-6.07475 c 0.19099,-0.0764 0.41919,-0.067 0.50711,0.0209 0.0879,0.0879 -0.0683,0.15045 -0.34726,0.13897 -0.30823,-0.0127 -0.37092,-0.0754 -0.15985,-0.15985 z m 6.879157,0 c 0.191,-0.0764 0.4192,-0.067 0.50712,0.0209 0.0879,0.0879 -0.0683,0.15045 -0.34726,0.13897 -0.30823,-0.0127 -0.37092,-0.0754 -0.15986,-0.15985 z m -22.47372,-6.63229 c -0.329107,-0.41964 -0.319749,-0.429 0.0999,-0.0999 0.254662,0.19972 0.463021,0.40808 0.463021,0.46302 0,0.21776 -0.217273,0.0776 -0.562917,-0.36313 z m -10.549584,-3.10885 c 0.341776,-0.3638 0.68094,-0.66146 0.7537,-0.66146 0.07276,0 -0.147341,0.29766 -0.489116,0.66146 -0.341776,0.3638 -0.68094,0.66146 -0.753701,0.66146 -0.07276,0 0.147342,-0.29766 0.489117,-0.66146 z m 6.759248,-5.41146 c -0.857213,-0.86625 -1.675554,-1.5027 -1.818537,-1.41432 -0.152289,0.0941 -0.174943,0.0231 -0.05469,-0.17148 0.144176,-0.23329 0.707604,0.16572 1.892961,1.34054 0.928227,0.91997 1.687687,1.70589 1.687687,1.74647 0,0.19064 -0.255661,-0.0341 -1.707419,-1.50121 z m 46.268056,-0.46363 c 1.12619,-1.19189 1.74145,-1.52554 1.74145,-0.94437 0,0.0884 -0.0823,0.0785 -0.18282,-0.022 -0.10055,-0.10055 -0.78516,0.38562 -1.52136,1.08039 l -1.33853,1.26319 z m 27.6915,0.29679 c 0.0127,-0.30822 0.0754,-0.37092 0.15986,-0.15985 0.0764,0.19099 0.067,0.4192 -0.0209,0.50712 -0.0879,0.0879 -0.15045,-0.0684 -0.13896,-0.34727 z m 0.26459,-2.11666 c 0.0127,-0.30823 0.0754,-0.37092 0.15985,-0.15986 0.0764,0.191 0.067,0.4192 -0.0209,0.50712 -0.0879,0.0879 -0.15045,-0.0684 -0.13896,-0.34726 z M 50.639214,103.21941 c 0,-0.3638 0.06005,-0.51263 0.133453,-0.33072 0.0734,0.1819 0.0734,0.47955 0,0.66145 -0.0734,0.1819 -0.133453,0.0331 -0.133453,-0.33073 z m 6.593696,-0.15433 c 0.0127,-0.30823 0.07539,-0.37092 0.159852,-0.15986 0.07643,0.191 0.06703,0.4192 -0.02089,0.50712 -0.08792,0.0879 -0.150453,-0.0683 -0.138965,-0.34726 z m 90.00417,-2.88837 c 0.003,-0.582093 0.0571,-0.789063 0.12041,-0.459943 0.0633,0.329123 0.0609,0.805373 -0.005,1.058333 -0.0662,0.25297 -0.118,-0.0163 -0.11506,-0.59839 z m 6.64575,-1.719803 c 0,-1.52796 0.0437,-2.15304 0.0972,-1.38906 0.0534,0.76399 0.0534,2.01414 0,2.77813 -0.0534,0.763983 -0.0972,0.1389 -0.0972,-1.38907 z m -96.874007,0 c 0,-0.50932 0.05445,-0.71768 0.121,-0.46302 0.06655,0.25466 0.06655,0.67138 0,0.92605 -0.06655,0.25466 -0.121,0.0463 -0.121,-0.46303 z m -6.624388,-0.13229 c 0.0054,-0.43656 0.06469,-0.58312 0.131774,-0.32569 0.06708,0.25743 0.06267,0.61462 -0.0098,0.79375 -0.07248,0.17913 -0.127363,-0.0315 -0.121971,-0.46806 z m 96.847305,-1.71979 c 0,-0.50932 0.0545,-0.71768 0.121,-0.46302 0.0666,0.25466 0.0666,0.67138 0,0.92604 -0.0666,0.25466 -0.121,0.0463 -0.121,-0.46302 z m -59.394195,-1.49814 c 0.181901,-0.0734 0.479557,-0.0734 0.661458,0 0.181901,0.0734 0.03307,0.13345 -0.330729,0.13345 -0.363802,0 -0.51263,-0.0601 -0.330729,-0.13345 z m 28.045835,0 c 0.1819,-0.0734 0.47955,-0.0734 0.66146,0 0.1819,0.0734 0.0331,0.13345 -0.33073,0.13345 -0.36381,0 -0.51263,-0.0601 -0.33073,-0.13345 z m -58.65047,-1.30203 c 0.0127,-0.30823 0.07539,-0.37092 0.159852,-0.15986 0.07643,0.191 0.06703,0.4192 -0.02089,0.50712 -0.08792,0.0879 -0.150453,-0.0684 -0.138965,-0.34726 z m -6.614584,-0.26459 c 0.0127,-0.30822 0.07539,-0.37091 0.159853,-0.15985 0.07643,0.191 0.06703,0.4192 -0.02089,0.50712 -0.08792,0.0879 -0.150453,-0.0683 -0.138965,-0.34727 z m 102.922924,-0.52916 c 0.0127,-0.30823 0.0754,-0.37092 0.15985,-0.15986 0.0764,0.191 0.067,0.4192 -0.0209,0.50712 -0.0879,0.0879 -0.15045,-0.0683 -0.13896,-0.34726 z M 82.897496,86.660904 c 0.0127,-0.308226 0.07539,-0.370919 0.15985,-0.159853 0.07643,0.190995 0.06703,0.419198 -0.02088,0.507119 -0.08792,0.08792 -0.150453,-0.06835 -0.138965,-0.347266 z m 28.045834,0 c 0.0127,-0.308226 0.0754,-0.370919 0.15985,-0.159853 0.0764,0.190995 0.067,0.419198 -0.0209,0.507119 -0.0879,0.08792 -0.15045,-0.06835 -0.13896,-0.347266 z M 82.897496,82.956738 c 0.0127,-0.308227 0.07539,-0.37092 0.15985,-0.159854 0.07643,0.190995 0.06703,0.419198 -0.02088,0.507119 -0.08792,0.08792 -0.150453,-0.06835 -0.138965,-0.347265 z m 28.045834,0 c 0.0127,-0.308227 0.0754,-0.37092 0.15985,-0.159854 0.0764,0.190995 0.067,0.419198 -0.0209,0.507119 -0.0879,0.08792 -0.15045,-0.06835 -0.13896,-0.347265 z m -20.551236,-7.584724 -0.504028,-0.595313 0.595312,0.504029 c 0.559446,0.473662 0.715762,0.686596 0.504029,0.686596 -0.05021,0 -0.318098,-0.26789 -0.595313,-0.595312 z m 28.045836,0 -0.50403,-0.595313 0.59531,0.504029 c 0.32742,0.277215 0.59531,0.545105 0.59531,0.595313 0,0.211732 -0.21293,0.05542 -0.68659,-0.504029 z M 52.844412,62.40743 46.231813,55.7267 l 6.680729,6.612599 c 6.208078,6.144766 6.799975,6.74886 6.6126,6.74886 -0.03747,0 -3.0438,-3.006328 -6.68073,-6.680729 z m 82.791428,5.820833 -0.50402,-0.595312 0.59531,0.504028 c 0.32742,0.277215 0.59531,0.545106 0.59531,0.595313 0,0.211733 -0.21293,0.05542 -0.6866,-0.504029 z M 70.176606,66.574617 c 0.790422,-0.800364 1.496663,-1.455208 1.569424,-1.455208 0.07276,0 -0.514419,0.654844 -1.304841,1.455208 -0.790421,0.800365 -1.496663,1.455209 -1.569423,1.455209 -0.07276,0 0.514418,-0.654844 1.30484,-1.455209 z m 62.019654,-1.785937 -0.50403,-0.595313 0.59531,0.504029 c 0.55945,0.473662 0.71577,0.686596 0.50403,0.686596 -0.0502,0 -0.31809,-0.26789 -0.59531,-0.595312 z m 8.59035,-0.661459 c -0.32911,-0.419645 -0.31975,-0.429003 0.0999,-0.0999 0.44073,0.345644 0.58089,0.562917 0.36313,0.562917 -0.0549,0 -0.2633,-0.208359 -0.46302,-0.463021 z M 64.091189,63.399617 c 0.341775,-0.363802 0.68094,-0.661458 0.7537,-0.661458 0.07276,0 -0.147341,0.297656 -0.489117,0.661458 -0.341775,0.363802 -0.680939,0.661459 -0.7537,0.661459 -0.07276,0 0.147341,-0.297657 0.489117,-0.661459 z M 67.001606,60.4892 c 0.341775,-0.363802 0.680939,-0.661458 0.7537,-0.661458 0.07276,0 -0.147341,0.297656 -0.489117,0.661458 -0.341775,0.363802 -0.680939,0.661459 -0.7537,0.661459 -0.07276,0 0.147341,-0.297657 0.489117,-0.661459 z m -4.235358,-8.797396 -6.480268,-6.548438 6.548438,6.480267 c 3.601641,3.564148 6.548438,6.510945 6.548438,6.548439 0,0.187431 -0.594873,-0.395184 -6.616608,-6.480268 z m 34.083665,1.86978 c 0.191,-0.07643 0.4192,-0.06703 0.50712,0.02089 0.0879,0.08792 -0.0683,0.150453 -0.34726,0.138965 -0.30823,-0.01269 -0.37092,-0.07539 -0.15986,-0.159853 z m 10.318747,0 c 0.191,-0.07643 0.4192,-0.06703 0.50712,0.02089 0.0879,0.08792 -0.0684,0.150453 -0.34726,0.138965 -0.30823,-0.01269 -0.37092,-0.07539 -0.15986,-0.159853 z m -6.09308,-0.279212 c 0.76886,-0.05362 1.95949,-0.05305 2.64583,0.0012 0.68635,0.0543 0.0573,0.09817 -1.39793,0.09748 -1.45521,-6.87e-4 -2.01677,-0.04512 -1.2479,-0.09874 z m 68.0552,-0.698275 c 0,-0.05494 0.20836,-0.263302 0.46302,-0.463021 0.41964,-0.329108 0.429,-0.319749 0.0999,0.09989 -0.34564,0.440729 -0.56291,0.580887 -0.56291,0.363126 z m -2.11667,-2.116667 c 0,-0.05494 0.20836,-0.263302 0.46302,-0.463021 0.41965,-0.329108 0.429,-0.319749 0.0999,0.09989 -0.34565,0.440729 -0.56292,0.580887 -0.56292,0.363126 z M 94.468665,47.211584 c 0.190995,-0.07643 0.419198,-0.06703 0.507119,0.02089 0.08792,0.08792 -0.06835,0.150453 -0.347266,0.138964 -0.308226,-0.0127 -0.370919,-0.07539 -0.159853,-0.159852 z M 96.585333,46.947 c 0.19099,-0.07643 0.4192,-0.06703 0.50712,0.02089 0.0879,0.08792 -0.0683,0.150453 -0.34727,0.138965 -0.30822,-0.0127 -0.37092,-0.07539 -0.15985,-0.159853 z m 10.847917,0 c 0.19099,-0.07643 0.4192,-0.06703 0.50712,0.02089 0.0879,0.08792 -0.0684,0.150453 -0.34727,0.138965 -0.30823,-0.0127 -0.37092,-0.07539 -0.15985,-0.159853 z m -6.63112,-0.278904 c 0.76398,-0.05345 2.01414,-0.05345 2.77812,0 0.76399,0.05345 0.13891,0.09718 -1.38906,0.09718 -1.52797,0 -2.15305,-0.04373 -1.38906,-0.09718 z M 55.666298,37.867324 c 0,-0.363802 0.06005,-0.512631 0.133452,-0.330729 0.0734,0.181901 0.0734,0.479557 0,0.661458 -0.0734,0.181901 -0.133452,0.03307 -0.133452,-0.330729 z m 113.836212,-0.06615 -0.50402,-0.595313 0.59531,0.504028 c 0.32742,0.277216 0.59531,0.545106 0.59531,0.595313 0,0.211734 -0.21293,0.05542 -0.6866,-0.504028 z M 44.644313,33.104823 c 0.263389,-0.291041 0.53842,-0.529166 0.611181,-0.529166 0.07276,0 -0.08321,0.238125 -0.346598,0.529166 -0.263389,0.291042 -0.538421,0.529167 -0.611181,0.529167 -0.07276,0 0.08321,-0.238125 0.346598,-0.529167 z m 8.970695,-0.06615 -0.504028,-0.595313 0.595312,0.504028 c 0.559447,0.473662 0.715762,0.686597 0.504028,0.686597 -0.05021,0 -0.318097,-0.267891 -0.595312,-0.595312 z m 2.645833,-2.116667 -0.504028,-0.595313 0.595313,0.504028 c 0.559447,0.473662 0.715762,0.686597 0.504028,0.686597 -0.05021,0 -0.318097,-0.26789 -0.595313,-0.595312 z m 105.304169,0 -0.50403,-0.595313 0.59532,0.504028 c 0.32742,0.277216 0.59531,0.545106 0.59531,0.595313 0,0.211733 -0.21293,0.05542 -0.6866,-0.504028 z"
       id="path858" />
    <path
       style="fill:#000000;stroke-width:0.264583"
       d="m 46.964629,168.5572 c -1.559179,-0.30773 -3.359219,-1.14398 -4.631571,-2.1517 -1.318104,-1.04396 -2.942322,-3.49611 -3.332679,-5.03148 -0.25538,-1.00448 -0.428446,-1.19369 -1.485886,-1.62453 -1.599805,-0.65181 -3.623338,-2.62 -4.531079,-4.40715 -1.059359,-2.08566 -1.21791,-5.52512 -0.359712,-7.80326 1.096698,-2.91126 4.387408,-5.51645 7.422,-5.87585 l 1.291319,-0.15294 V 98.322607 55.134917 L 40.296547,54.99536 c -2.728461,-0.365964 -5.705302,-2.526577 -7.102552,-5.155085 -3.078996,-5.792213 -0.141124,-12.757567 6.165393,-14.61743 0.898807,-0.265069 1.140461,-0.496366 1.547972,-1.481635 1.553106,-3.755056 6.212406,-6.208293 10.273594,-5.409304 2.110375,0.415191 3.404002,1.082197 5.007096,2.581703 1.516011,1.418051 2.561701,3.412563 2.787147,5.316101 l 0.162616,1.37303 h 43.056147 43.05614 l 0.17115,-1.290211 c 0.0941,-0.709616 0.53306,-2.014441 0.97538,-2.899609 2.32742,-4.657574 8.14409,-6.578465 12.78371,-4.221674 1.57914,0.802162 3.51781,2.765912 4.29126,4.346785 0.50963,1.041649 0.88429,1.470153 1.39228,1.592388 2.77203,0.667012 5.88294,3.4061 6.94079,6.111226 0.83029,2.123179 0.83029,5.41568 0,7.538858 -1.14667,2.932238 -4.62958,5.790624 -7.54228,6.189854 l -1.21703,0.166812 v 43.186558 43.186563 l 1.37303,0.16262 c 1.90354,0.22544 3.89805,1.27114 5.3161,2.78715 1.49951,1.60309 2.16651,2.89672 2.5817,5.00709 0.79899,4.06119 -1.65424,8.72049 -5.4093,10.27359 -0.98527,0.40752 -1.21657,0.64917 -1.48163,1.54798 -1.12821,3.82558 -4.18679,6.55492 -8.15126,7.27381 -5.26415,0.95458 -10.92877,-3.04809 -11.62137,-8.21176 l -0.13966,-1.04126 -43.28326,0.0669 -43.28326,0.0669 -0.197299,1.15577 c -0.429925,2.51844 -2.481772,5.38313 -4.849594,6.77077 -1.182218,0.69283 -4.002022,1.47695 -5.154202,1.43327 -0.363803,-0.0138 -1.165129,-0.12449 -1.780726,-0.24599 z m 5.4978,-3.85472 c 2.242856,-1.22071 3.426676,-3.21561 3.426676,-5.77442 0,-0.80209 -0.187661,-1.92736 -0.417024,-2.50059 -0.373057,-0.93237 -0.374875,-1.10728 -0.01724,-1.65901 0.21988,-0.33921 0.541026,-1.21206 0.713657,-1.93967 0.294362,-1.24067 0.715254,-1.72641 6.769991,-7.81303 l 6.456115,-6.49011 -3.624507,-3.64763 -3.624508,-3.64763 -6.501678,6.47141 c -6.152713,6.12408 -6.573494,6.4879 -7.839699,6.77845 -0.735912,0.16887 -1.679522,0.53106 -2.096913,0.80487 -0.702848,0.46106 -0.817922,0.4673 -1.558207,0.0845 -1.083905,-0.56051 -3.717168,-0.53844 -5.12922,0.043 -1.395117,0.57445 -3.298732,2.6461 -3.718313,4.04654 -0.728716,2.43224 -0.201044,4.40211 1.707892,6.37581 0.754643,0.78024 1.524558,1.3678 1.710921,1.30567 0.186363,-0.0621 0.42637,-0.44022 0.533347,-0.84022 0.295207,-1.10382 0.736726,-1.4872 1.712727,-1.4872 1.33372,0 1.778044,0.83056 1.475713,2.7585 -0.277138,1.76729 -0.08189,3.04691 0.695477,4.55809 1.661595,3.23009 5.945429,4.412 9.324796,2.57272 z m 105.011161,0.54183 c 1.98188,-0.58856 3.7995,-2.43808 4.38906,-4.46608 0.34667,-1.19252 0.38304,-1.8068 0.17756,-2.99945 -0.37733,-2.19012 0.0534,-2.96561 1.64724,-2.96561 0.71504,0 1.339,0.65455 1.57637,1.65364 0.0951,0.40019 0.2718,0.72761 0.39272,0.72761 0.66842,0 2.42123,-1.69317 3.04162,-2.93814 1.92091,-3.85477 -0.29171,-8.2852 -4.59908,-9.20897 -1.31473,-0.28196 -3.20225,-0.0637 -4.17958,0.4832 -0.24965,0.13971 -0.69641,0.0447 -1.21425,-0.25811 -0.4506,-0.26353 -1.36513,-0.61509 -2.0323,-0.78125 -1.09279,-0.27216 -1.85321,-0.94269 -7.67089,-6.764 -3.55182,-3.55405 -6.54562,-6.4619 -6.65287,-6.4619 -0.10726,0 -0.70263,0.56555 -1.32304,1.25677 -1.40843,1.56919 -2.84023,3.0016 -4.66275,4.66473 l -1.41424,1.29057 6.63977,6.6585 c 4.77033,4.78379 6.63976,6.82756 6.63976,7.25898 0,0.33026 0.24183,1.16263 0.5374,1.8497 0.50303,1.16931 0.51149,1.32266 0.13229,2.39742 -0.82764,2.34579 -0.37982,4.66805 1.25926,6.53015 2.01785,2.29241 4.35008,2.95301 7.31595,2.07224 z m -12.68448,-10.89615 c 0,-0.11023 -2.96318,-3.16182 -6.58483,-6.7813 l -6.58484,-6.58088 -2.47714,1.53565 c -6.2468,3.87256 -13.70262,6.412 -21.38566,7.2839 -3.80569,0.43189 -10.969617,0.17965 -14.699982,-0.51756 -6.203517,-1.15946 -13.370405,-3.8676 -17.588385,-6.64609 -0.363802,-0.23965 -1.084085,-0.68974 -1.600626,-1.0002 l -0.93917,-0.56447 -6.731803,6.73569 -6.731802,6.73568 h 42.662118 c 23.46416,0 42.66212,-0.0902 42.66212,-0.20042 z m -39.02605,-10.92783 c 16.07738,-1.39194 29.90712,-10.77074 36.93525,-25.04809 7.39564,-15.02393 5.92559,-32.58092 -3.8866,-46.418151 -2.09199,-2.950133 -7.32586,-8.13875 -10.42677,-10.336602 -2.83548,-2.009728 -8.34387,-4.834623 -11.49663,-5.895883 C 103.48053,51.208374 88.788912,53.114666 77.280465,60.860871 63.54058,70.10903 56.097322,85.31839 57.244907,101.80102 c 1.516846,21.78628 19.093419,39.67816 40.862386,41.5954 3.734277,0.32888 4.119297,0.33008 7.655767,0.0239 z m -9.524997,-16.5186 c -6.848758,-1.21138 -12.830117,-4.05831 -18.107229,-8.61843 l -2.171108,-1.87613 -1.215189,0.94675 c -0.668353,0.52071 -1.304028,0.94675 -1.412613,0.94675 -0.224518,0 -3.426926,-3.94933 -3.406733,-4.20132 0.0072,-0.0904 0.608722,-0.64056 1.336622,-1.22264 1.676334,-1.34053 4.155898,-4.37757 5.421054,-6.63988 l 0.977373,-1.74771 2.241368,2.24137 2.241368,2.24136 -0.954443,1.41727 -0.954442,1.41726 1.519696,1.53821 c 3.113402,3.15133 8.120224,5.96131 12.955689,7.27112 2.372187,0.64256 3.004217,0.70073 7.614004,0.70073 4.60979,0 5.24183,-0.0582 7.61401,-0.70073 4.83546,-1.30981 9.84228,-4.11979 12.95569,-7.27112 l 1.51969,-1.53821 -0.95444,-1.41726 -0.95444,-1.41727 2.23281,-2.23281 2.23282,-2.23282 1.20471,2.06858 c 1.31894,2.26471 3.35124,4.68562 5.30008,6.31355 0.68916,0.57568 1.25471,1.11707 1.25677,1.2031 0.002,0.086 -0.74712,1.11727 -1.66487,2.29166 l -1.66862,2.13525 -1.36532,-1.06385 -1.36532,-1.06386 -1.7947,1.63309 c -4.34141,3.95049 -9.83923,6.82089 -16.06339,8.38668 -2.2572,0.56783 -3.41311,0.68527 -7.55944,0.76802 -3.440787,0.0687 -5.523547,-0.0135 -7.011457,-0.27671 z M 86.497721,94.522957 c -2.482416,-1.63676 -4.011181,-7.058039 -3.379438,-11.984113 0.663559,-5.174158 2.832722,-8.408385 5.412722,-8.070382 4.781904,0.626472 6.609932,12.537181 2.836844,18.483755 -1.261113,1.98757 -3.260098,2.6323 -4.870128,1.57074 z m 28.045829,0 c -2.48241,-1.63676 -4.01118,-7.058039 -3.37944,-11.984113 0.66356,-5.174158 2.83273,-8.408385 5.41273,-8.070382 4.7819,0.626472 6.60993,12.537181 2.83684,18.483755 -1.26111,1.98757 -3.2601,2.6323 -4.87013,1.57074 z M 59.006423,126.78046 c -0.310459,-0.51654 -0.760546,-1.23682 -1.000192,-1.60063 -2.783205,-4.22513 -5.496934,-11.4119 -6.641393,-17.58838 -0.697051,-3.76189 -0.952219,-10.919683 -0.523711,-14.690793 0.874465,-7.69576 3.411289,-15.145644 7.285347,-21.394854 l 1.535653,-2.477146 -6.580881,-6.584834 c -3.619484,-3.621657 -6.671071,-6.584831 -6.781303,-6.584831 -0.110232,0 -0.200422,19.197953 -0.200422,42.662125 v 42.662113 l 6.735688,-6.7318 6.735687,-6.7318 z M 158.28286,98.392707 V 55.730592 l -6.71427,6.710397 -6.71427,6.710398 1.33609,2.1512 c 3.1077,5.00361 5.40185,10.80751 6.69034,16.925704 0.84048,3.990916 1.16667,12.066249 0.65535,16.224119 -0.93333,7.58945 -3.74715,15.58897 -7.5235,21.38888 l -1.2059,1.85208 6.66999,6.68073 c 3.66849,3.67441 6.70063,6.68073 6.73808,6.68073 0.0375,0 0.0681,-19.19795 0.0681,-42.662123 z M 63.958897,63.78837 c 0.873125,-1.002978 2.442697,-2.572317 3.487936,-3.487423 1.04524,-0.915107 1.908443,-1.783803 1.91823,-1.930438 0.0098,-0.146634 -2.89006,-3.172645 -6.444102,-6.724467 -5.821318,-5.81768 -6.491843,-6.578107 -6.764002,-7.670892 -0.166158,-0.667169 -0.517722,-1.581706 -0.781254,-2.032304 -0.302857,-0.51784 -0.397821,-0.964593 -0.258108,-1.214247 0.546941,-0.977328 0.765155,-2.86485 0.483198,-4.179574 -0.923768,-4.307379 -5.354203,-6.519998 -9.208973,-4.599085 -1.244969,0.620394 -2.938135,2.373197 -2.938135,3.041624 0,0.120914 0.327422,0.297635 0.727605,0.392713 0.999092,0.23737 1.653646,0.861337 1.653646,1.576372 0,1.593824 -0.775495,2.024572 -2.965611,1.647243 -5.370783,-0.925316 -9.607163,4.90589 -7.114227,9.792448 0.693174,1.358734 2.629769,3.049783 3.943314,3.44333 1.412051,0.423061 2.933697,0.39085 4.299439,-0.09101 1.058508,-0.373464 1.23556,-0.364994 2.480662,0.118665 0.737439,0.286457 1.638454,0.582781 2.002256,0.658497 0.409573,0.08524 3.129168,2.609288 7.141726,6.628211 3.564147,3.569798 6.54071,6.482306 6.614584,6.472238 0.07388,-0.01008 0.848691,-0.838925 1.721816,-1.841899 z M 156.16619,52.518034 c 0.50933,-0.0968 1.43185,-0.409721 2.05005,-0.695392 1.06003,-0.489834 1.18459,-0.495163 2.18817,-0.09361 0.58529,0.234186 1.57632,0.425792 2.2023,0.425792 5.87091,0 8.94404,-7.052877 4.98336,-11.436883 -1.65025,-1.826622 -3.81507,-2.551727 -6.2427,-2.090979 -1.5557,0.295264 -2.47483,-0.02954 -2.70756,-0.956802 -0.24274,-0.967139 0.29016,-1.830071 1.34516,-2.178253 0.51905,-0.1713 0.94372,-0.453688 0.94372,-0.627528 0,-0.667422 -1.74141,-2.384514 -3.02396,-2.981728 -1.46048,-0.680068 -3.10292,-0.799115 -4.7428,-0.343768 -1.28528,0.356884 -3.27638,2.16527 -3.90903,3.550315 -0.57163,1.251445 -0.64242,4.097584 -0.13163,5.291667 0.29893,0.698816 0.26965,0.936151 -0.24487,1.984375 -0.32143,0.654844 -0.65816,1.608233 -0.7483,2.118642 -0.13649,0.772848 -1.24241,2.005865 -6.61416,7.374259 l -6.45028,6.44624 3.60596,3.638061 3.60595,3.638061 6.48229,-6.44324 c 5.31948,-5.287438 6.64841,-6.474809 7.40833,-6.619229 z m -80.294851,1.469289 c 4.899364,-2.987256 11.216054,-5.339257 17.45631,-6.499807 2.135774,-0.397206 3.895484,-0.489763 9.128121,-0.480116 6.00471,0.01107 6.72881,0.06438 9.82824,0.723569 6.28386,1.336454 12.03111,3.602382 17.0615,6.72672 l 2.1512,1.336093 6.7104,-6.714271 6.7104,-6.71427 H 102.19119 59.464872 l 6.735956,6.739844 6.735957,6.739844 0.670433,-0.442947 c 0.368736,-0.24362 1.387591,-0.880218 2.264121,-1.414659 z"
       id="path856" />
  </g>
</svg>
