<?xml version="1.0" encoding="UTF-8" standalone="no"?>
<svg
   xmlns:ns0="http://www.iki.fi/pav/software/textext/"
   xmlns:dc="http://purl.org/dc/elements/1.1/"
   xmlns:cc="http://creativecommons.org/ns#"
   xmlns:rdf="http://www.w3.org/1999/02/22-rdf-syntax-ns#"
   xmlns:svg="http://www.w3.org/2000/svg"
   xmlns="http://www.w3.org/2000/svg"
   xmlns:xlink="http://www.w3.org/1999/xlink"
   version="1.1"
   id="svg2"
   height="359.06247"
   width="350.40585">
  <defs
     id="defs4">
    <marker
       orient="auto"
       refY="0"
       refX="0"
       id="Arrow1Mstart"
       style="overflow:visible">
      <path
         id="path4136"
         d="M 0,0 5,-5 -12.5,0 5,5 0,0 Z"
         style="fill-rule:evenodd;stroke:#000000;stroke-width:1pt"
         transform="matrix(0.4,0,0,0.4,4,0)" />
    </marker>
    <marker
       orient="auto"
       refY="0"
       refX="0"
       id="Arrow1Send"
       style="overflow:visible">
      <path
         id="path4145"
         d="M 0,0 5,-5 -12.5,0 5,5 0,0 Z"
         style="fill-rule:evenodd;stroke:#000000;stroke-width:1pt"
         transform="matrix(-0.2,0,0,-0.2,-1.2,0)" />
    </marker>
    <marker
       orient="auto"
       refY="0"
       refX="0"
       id="Arrow1Sstart"
       style="overflow:visible">
      <path
         id="path4142"
         d="M 0,0 5,-5 -12.5,0 5,5 0,0 Z"
         style="fill-rule:evenodd;stroke:#000000;stroke-width:1pt"
         transform="matrix(0.2,0,0,0.2,1.2,0)" />
    </marker>
    <marker
       style="overflow:visible"
       id="Arrow1Mend"
       refX="0"
       refY="0"
       orient="auto">
      <path
         transform="matrix(-0.4,0,0,-0.4,-4,0)"
         style="fill-rule:evenodd;stroke:#000000;stroke-width:1pt;marker-start:none"
         d="M 0,0 5,-5 -12.5,0 5,5 0,0 Z"
         id="path4072" />
    </marker>
    <marker
       style="overflow:visible"
       id="Arrow1Lend"
       refX="0"
       refY="0"
       orient="auto">
      <path
         transform="matrix(-0.8,0,0,-0.8,-10,0)"
         style="fill-rule:evenodd;stroke:#000000;stroke-width:1pt;marker-start:none"
         d="M 0,0 5,-5 -12.5,0 5,5 0,0 Z"
         id="path4066" />
    </marker>
    <marker
       orient="auto"
       refY="0"
       refX="0"
       id="Arrow1MstartZ"
       style="overflow:visible">
      <path
         id="path5361"
         d="M 0,0 5,-5 -12.5,0 5,5 0,0 Z"
         style="fill:#4f4f4f;fill-rule:evenodd;stroke:#4f4f4f;stroke-width:1pt"
         transform="matrix(0.4,0,0,0.4,4,0)" />
    </marker>
    <marker
       style="overflow:visible"
       id="Arrow1Mendg"
       refX="0"
       refY="0"
       orient="auto">
      <path
         transform="matrix(-0.4,0,0,-0.4,-4,0)"
         style="fill:#4f4f4f;fill-rule:evenodd;stroke:#4f4f4f;stroke-width:1pt;marker-start:none"
         d="M 0,0 5,-5 -12.5,0 5,5 0,0 Z"
         id="path5364" />
    </marker>
  </defs>
  <metadata
     id="metadata7">
    <rdf:RDF>
      <cc:Work
         rdf:about="">
        <dc:format>image/svg+xml</dc:format>
        <dc:type
           rdf:resource="http://purl.org/dc/dcmitype/StillImage" />
        <dc:title></dc:title>
      </cc:Work>
    </rdf:RDF>
  </metadata>
  <g
     transform="translate(-227.61903,-463.29972)"
     id="layer1">
    <path
       id="path4026"
       style="fill:none;stroke:#4f4f4f;stroke-width:1;stroke-linecap:round;stroke-linejoin:round;stroke-miterlimit:10;stroke-dasharray:none;stroke-opacity:1"
       d="m 375,805.60372 0,-3.24154" />
    <path
       d="m 282.88839,596.24612 0,-3.9375"
       style="fill:none;stroke:#4f4f4f;stroke-width:0.625;stroke-linecap:round;stroke-linejoin:round;stroke-miterlimit:3.79999995;stroke-dasharray:none;stroke-opacity:1"
       id="path3085" />
    <path
       d="m 337.88839,596.24612 0,-3.9375"
       style="fill:none;stroke:#4f4f4f;stroke-width:0.625;stroke-linecap:round;stroke-linejoin:round;stroke-miterlimit:3.79999995;stroke-dasharray:none;stroke-opacity:1"
       id="path3087" />
    <path
       d="m 392.88839,596.24612 0,-3.9375"
       style="fill:none;stroke:#4f4f4f;stroke-width:0.625;stroke-linecap:round;stroke-linejoin:round;stroke-miterlimit:3.79999995;stroke-dasharray:none;stroke-opacity:1"
       id="path3089" />
    <path
       d="m 447.82589,596.24612 0,-3.9375"
       style="fill:none;stroke:#4f4f4f;stroke-width:0.625;stroke-linecap:round;stroke-linejoin:round;stroke-miterlimit:3.79999995;stroke-dasharray:none;stroke-opacity:1"
       id="path3091" />
    <path
       d="m 502.82589,596.24612 0,-3.9375"
       style="fill:none;stroke:#4f4f4f;stroke-width:0.625;stroke-linecap:round;stroke-linejoin:round;stroke-miterlimit:3.79999995;stroke-dasharray:none;stroke-opacity:1"
       id="path3093" />
    <path
       d="m 557.82589,596.24612 0,-3.9375"
       style="fill:none;stroke:#4f4f4f;stroke-width:0.625;stroke-linecap:round;stroke-linejoin:round;stroke-miterlimit:3.79999995;stroke-dasharray:none;stroke-opacity:1"
       id="path3095" />
    <path
       d="m 274.76339,596.24612 0,-8.125 m 0.375,8.125 0,-6.6875 m 7.375,6.6875 0,-22.8125 m 0.1875,22.8125 0,-9.6875 m 0.5,9.6875 0,-3.375 m 0.1875,3.375 0,-2.625 m 0.3125,2.625 0,-3.0625 m 3.375,3.0625 0,-2.0625 m 0.75,2.0625 0,-3.1875 m 0.1875,3.1875 0,-2.125 m 5.0625,2.125 0,-3.3125 m 1.625,3.3125 0,-4.875 m 11.0625,4.875 0,-1.0625 m 3.4375,1.0625 0,-3.3125 m 1.125,3.3125 0,-5.1875 m 3.375,5.1875 0,-6.4375 m 0.5,6.4375 0,-29.875 m 0.9375,29.875 0,-4 m 0.1875,4 0,-1.6875 m 2.1875,1.6875 0,-3.9375 m 0.4375,3.9375 0,-13.0625 m 8.25,13.0625 0,-1.9375 m 6.5,1.9375 0,-4.4375 m 0.1875,4.4375 0,-2.0625 m 0.75,2.0625 0,-6.0625 m 2.8125,6.0625 0,-6 m 1.1875,6 0,-20.125 m 1.875,20.125 0,-2.5625 m 0.8125,2.5625 0,-18.625 m 4.9375,18.625 0,-34.125 m 0.25,34.125 0,-4.625 m 0.3125,4.625 0,-1.75 m 0.25,1.75 0,-2.875 m 1.6875,2.875 0,-4.75 m 0.4375,4.75 0,-13.75 m 0.875,13.75 0,-18.25 m 1.75,18.25 0,-4.875 m 0.9375,4.875 0,-3.5625 m 0.75,3.5625 0,-3.3125 m 0.3125,3.3125 0,-40.5625 m 0.375,40.5625 0,-102.75 m 0.3125,102.75 0,-17.125 m 3,17.125 0,-9.3125 m 2.8125,9.3125 0,-8.25 m 0.4375,8.25 0,-10.4375 m 0.375,10.4375 0,-4.25 m 2.5,4.25 0,-4.6875 m 0.5625,4.6875 0,-5.5625 m 1.125,5.5625 0,-1.5625 m 0.25,1.5625 0,-1.6875 m 0.375,1.6875 0,-15.5625"
       style="fill:none;stroke:#000000;stroke-width:0.82499999;stroke-linecap:round;stroke-linejoin:round;stroke-miterlimit:3.79999995;stroke-dasharray:none;stroke-opacity:1"
       id="path3143" />
    <path
       d="m 365.63839,596.24612 0,-4.5 m 1.125,4.5 0,-26.125 m 0.3125,26.125 0,-7.1875 m 0.9375,7.1875 0,-8.375 m 0.25,8.375 0,-18.3125 m 0.75,18.3125 0,-5.1875 m 0.4375,5.1875 0,-16.75 m 2.0625,16.75 0,-3.3125 m 0.5,3.3125 0,-2.1875 m 0.5625,2.1875 0,-1.6875 m 0.25,1.6875 0,-8 m 0.375,8 0,-13.3125 m 0.1875,13.3125 0,-3.4375 m 0.875,3.4375 0,-5.125 m 1.0625,5.125 0,-1.3125 m 0.3125,1.3125 0,-35.75 m 0.75,35.75 0,-4.8125 m 0.5,4.8125 0,-4.75 m 1.1875,4.75 0,-5.0625 m 0.25,5.0625 0,-2.25 m 1.4375,2.25 0,-7.25 m 3.5,7.25 0,-18.875 m 3.25,18.875 0,-3.3125 m 1.25,3.3125 0,-3.625 m 0.5,3.625 0,-60.6875 m 0.25,60.6875 0,-19.625 m 0.25,19.625 0,-2.25 m 4.6875,2.25 0,-1.375 m 10.1875,1.375 0,-4.4375 m 0.25,4.4375 0,-3.125 m 2.25,3.125 0,-5.5 m 1.875,5.5 0,-5.6875 m 0.1875,5.6875 0,-3 m 2.375,3 0,-6.375 m 3.375,6.375 0,-9.5 m 1.5,9.5 0,-93.6875 m 0.25,93.6875 0,-74.8125 m 0.3125,74.8125 0,-9.375 m 0.375,9.375 0,-0.375 m 2.0625,0.375 0,-4.5625 m 0.25,4.5625 0,-7 m 0.25,7 0,-1.1875 m 4.25,1.1875 0,-8 m 1.125,8 0,-3.375 m 2,3.375 0,-2.3125 m 1.125,2.3125 0,-6.9375 m 2.375,6.9375 0,-7 m 0.5,7 0,-3.75 m 7.8125,3.75 0,-23.4375 m 4.8125,23.4375 0,-5.875 m 2.6875,5.875 0,-11.9375 m 0.3125,11.9375 0,-2.8125"
       style="fill:none;stroke:#000000;stroke-width:0.82499999;stroke-linecap:round;stroke-linejoin:round;stroke-miterlimit:3.79999995;stroke-dasharray:none;stroke-opacity:1"
       id="path3145" />
    <path
       d="m 446.57589,596.24612 0,-46.1875 m 0.3125,46.1875 0,-21.8125 m 9,21.8125 0,-13.5 m 9.125,13.5 0,-3.8125 m 0.25,3.8125 0,-6.125 m 4.9375,6.125 0,-2.1875 m 2.75,2.1875 0,-18.125 m 0.3125,18.125 0,-18.1875 m 0.25,18.1875 0,-2.5625 m 4.125,2.5625 0,-10.0625 m 0.5,10.0625 0,-118.3125 m 0.3125,118.3125 0,-101.1875 m 0.3125,101.1875 0,-25.5625 m 0.25,25.5625 0,-19.6875 m 4,19.6875 0,-10.5625 m 2.0625,10.5625 0,-5.1875 m 3,5.1875 0,-11.1875 m 4.4375,11.1875 0,-26.625 m 0.25,26.625 0,-0.5625 m 0.3125,0.5625 0,-10.4375 m 4.375,10.4375 0,-0.9375 m 0.8125,0.9375 0,-1.5625 m 7.4375,1.5625 0,-4.5625 m 26.1875,4.5625 0,-6.5 m 6.8125,6.5 0,-3.875"
       style="fill:none;stroke:#000000;stroke-width:0.82499999;stroke-linecap:round;stroke-linejoin:round;stroke-miterlimit:3.79999995;stroke-dasharray:none;stroke-opacity:1"
       id="path3147" />
    <path
       d="m 287.82589,596.24612 0,-3.1875 m 27.3125,3.1875 0,-4 m 37.6875,4 0,-40.5625 m 35.4375,40.5625 0,-60.6875 m 27.1875,60.6875 0,-93.6875 m 31.125,93.6875 0,-46.1875 m 31.5625,46.1875 0,-132.3125"
       style="fill:none;stroke:#ff171f;stroke-width:1.25;stroke-linecap:round;stroke-linejoin:round;stroke-miterlimit:3.79999995;stroke-dasharray:none;stroke-opacity:1"
       id="path3149" />
    <path
       d="m 229.86347,596.24612 338.47411,0"
       style="fill:none;stroke:#000000;stroke-width:3.07235837;stroke-linecap:round;stroke-linejoin:round;stroke-miterlimit:3.79999995;stroke-dasharray:none;stroke-dashoffset:0;stroke-opacity:1;marker-end:url(#Arrow1Mend)"
       id="path3059" />
    <rect
       y="647.72296"
       x="479.43979"
       height="20"
       width="30"
       id="rect4709"
       style="fill:#ff0000;fill-opacity:0.51293137;stroke:#000000;stroke-width:1;stroke-miterlimit:3.79999995;stroke-dasharray:none;stroke-dashoffset:0;stroke-opacity:1" />
    <rect
       style="fill:#ff0000;fill-opacity:0.49568966;stroke:#000000;stroke-width:1;stroke-miterlimit:3.79999995;stroke-dasharray:none;stroke-dashoffset:0;stroke-opacity:1"
       id="rect4713"
       width="30"
       height="20"
       x="239.4398"
       y="647.72296" />
    <rect
       style="fill:#808000;fill-opacity:0.5;stroke:#000000;stroke-width:1;stroke-miterlimit:3.79999995;stroke-dasharray:none;stroke-dashoffset:0;stroke-opacity:1"
       id="rect4715"
       width="35"
       height="20"
       x="444.43979"
       y="647.72296" />
    <rect
       y="647.72296"
       x="419.43979"
       height="20"
       width="25"
       id="rect4717"
       style="fill:#ffff00;fill-opacity:0.51293137;stroke:#000000;stroke-width:1;stroke-miterlimit:3.79999995;stroke-dasharray:none;stroke-dashoffset:0;stroke-opacity:1" />
    <rect
       style="fill:#ff0000;fill-opacity:0.51372549;stroke:#000000;stroke-width:1;stroke-miterlimit:3.79999995;stroke-dasharray:none;stroke-dashoffset:0;stroke-opacity:1"
       id="rect4719"
       width="30"
       height="20"
       x="389.43979"
       y="647.72296" />
    <rect
       y="647.72296"
       x="354.43979"
       height="20"
       width="35"
       id="rect4721"
       style="fill:#00ff00;fill-opacity:0.51293137;stroke:#000000;stroke-width:1;stroke-miterlimit:3.79999995;stroke-dasharray:none;stroke-dashoffset:0;stroke-opacity:1" />
    <rect
       style="fill:#892ca0;fill-opacity:0.55172412;stroke:#000000;stroke-width:1;stroke-miterlimit:3.79999995;stroke-dasharray:none;stroke-dashoffset:0;stroke-opacity:1"
       id="rect4723"
       width="40"
       height="20"
       x="314.43979"
       y="647.72296" />
    <rect
       y="647.72296"
       x="289.43979"
       height="20"
       width="25"
       id="rect4725"
       style="fill:#0066ff;fill-opacity:0.51724135;stroke:#000000;stroke-width:1;stroke-miterlimit:3.79999995;stroke-dasharray:none;stroke-dashoffset:0;stroke-opacity:1" />
    <rect
       style="fill:#ff00ff;fill-opacity:0.51724135;stroke:#000000;stroke-width:1;stroke-miterlimit:3.79999995;stroke-dasharray:none;stroke-dashoffset:0;stroke-opacity:1"
       id="rect4727"
       width="20"
       height="20"
       x="269.43979"
       y="647.72296" />
    <rect
       y="647.72296"
       x="509.43979"
       height="20"
       width="35"
       id="rect4729"
       style="fill:#800080;fill-opacity:0.51293137;stroke:#000000;stroke-width:1;stroke-miterlimit:3.79999995;stroke-dasharray:none;stroke-dashoffset:0;stroke-opacity:1" />
    <text
       id="text4731"
       y="663.64392"
       x="248.97932"
       style="font-style:normal;font-variant:normal;font-weight:normal;font-stretch:normal;font-size:16px;line-height:125%;font-family:Sans;-inkscape-font-specification:Sans;text-align:start;letter-spacing:0px;word-spacing:0px;writing-mode:lr-tb;text-anchor:start;fill:#000000;fill-opacity:1;stroke:none"
       xml:space="preserve"><tspan
         y="663.64392"
         x="248.97932"
         id="tspan4733">V</tspan></text>
    <text
       id="text4735"
       y="663.64392"
       x="274.50504"
       style="font-style:normal;font-variant:normal;font-weight:normal;font-stretch:normal;font-size:16px;line-height:125%;font-family:Sans;-inkscape-font-specification:Sans;text-align:start;letter-spacing:0px;word-spacing:0px;writing-mode:lr-tb;text-anchor:start;fill:#000000;fill-opacity:1;stroke:none"
       xml:space="preserve"><tspan
         y="663.64392"
         x="274.50504"
         id="tspan4737">A</tspan></text>
    <text
       id="text4739"
       y="663.64392"
       x="521.67694"
       style="font-style:normal;font-variant:normal;font-weight:normal;font-stretch:normal;font-size:16px;line-height:125%;font-family:Sans;-inkscape-font-specification:Sans;text-align:start;letter-spacing:0px;word-spacing:0px;writing-mode:lr-tb;text-anchor:start;fill:#000000;fill-opacity:1;stroke:none"
       xml:space="preserve"><tspan
         y="663.64392"
         x="521.67694"
         id="tspan4741">K</tspan></text>
    <text
       id="text4743"
       y="663.64392"
       x="328.2886"
       style="font-style:normal;font-variant:normal;font-weight:normal;font-stretch:normal;font-size:16px;line-height:125%;font-family:Sans;-inkscape-font-specification:Sans;text-align:start;letter-spacing:0px;word-spacing:0px;writing-mode:lr-tb;text-anchor:start;fill:#000000;fill-opacity:1;stroke:none"
       xml:space="preserve"><tspan
         y="663.64392"
         x="328.2886"
         id="tspan4745">H</tspan></text>
    <text
       id="text4747"
       y="663.64392"
       x="455.59097"
       style="font-style:normal;font-variant:normal;font-weight:normal;font-stretch:normal;font-size:16px;line-height:125%;font-family:Sans;-inkscape-font-specification:Sans;text-align:start;letter-spacing:0px;word-spacing:0px;writing-mode:lr-tb;text-anchor:start;fill:#000000;fill-opacity:1;stroke:none"
       xml:space="preserve"><tspan
         y="663.64392"
         x="455.59097"
         id="tspan4749">D</tspan></text>
    <text
       id="text4751"
       y="663.64392"
       x="426.51193"
       style="font-style:normal;font-variant:normal;font-weight:normal;font-stretch:normal;font-size:16px;line-height:125%;font-family:Sans;-inkscape-font-specification:Sans;text-align:start;letter-spacing:0px;word-spacing:0px;writing-mode:lr-tb;text-anchor:start;fill:#000000;fill-opacity:1;stroke:none"
       xml:space="preserve"><tspan
         y="663.64392"
         x="426.51193"
         id="tspan4753">L</tspan></text>
    <text
       id="text4755"
       y="663.64392"
       x="367.89337"
       style="font-style:normal;font-variant:normal;font-weight:normal;font-stretch:normal;font-size:16px;line-height:125%;font-family:Sans;-inkscape-font-specification:Sans;text-align:start;letter-spacing:0px;word-spacing:0px;writing-mode:lr-tb;text-anchor:start;fill:#000000;fill-opacity:1;stroke:none"
       xml:space="preserve"><tspan
         y="663.64392"
         x="367.89337"
         id="tspan4757">E</tspan></text>
    <text
       xml:space="preserve"
       style="font-style:normal;font-variant:normal;font-weight:normal;font-stretch:normal;font-size:16px;line-height:125%;font-family:Sans;-inkscape-font-specification:Sans;text-align:start;letter-spacing:0px;word-spacing:0px;writing-mode:lr-tb;text-anchor:start;fill:#000000;fill-opacity:1;stroke:none"
       x="489.67001"
       y="663.64392"
       id="text4763"><tspan
         id="tspan4765"
         x="489.67001"
         y="663.64392">V</tspan></text>
    <text
       id="text4767"
       y="663.64392"
       x="398.74908"
       style="font-style:normal;font-variant:normal;font-weight:normal;font-stretch:normal;font-size:16px;line-height:125%;font-family:Sans;-inkscape-font-specification:Sans;text-align:start;letter-spacing:0px;word-spacing:0px;writing-mode:lr-tb;text-anchor:start;fill:#000000;fill-opacity:1;stroke:none"
       xml:space="preserve"><tspan
         y="663.64392"
         x="398.74908"
         id="tspan4769">V</tspan></text>
    <path
       id="path4775"
       style="fill:none;stroke:#000000;stroke-width:3.09742355;stroke-linecap:round;stroke-linejoin:round;stroke-miterlimit:3.79999995;stroke-dasharray:none;stroke-dashoffset:0;stroke-opacity:1;marker-end:url(#Arrow1Mend)"
       d="m 229.1898,667.50348 342.91896,0" />
    <text
       id="text4777"
       y="612.36218"
       x="555"
       style="font-style:normal;font-weight:normal;font-size:40px;line-height:125%;font-family:Sans;letter-spacing:0px;word-spacing:0px;fill:#000000;fill-opacity:1;stroke:none"
       xml:space="preserve"><tspan
         style="font-size:12px"
         y="612.36218"
         x="555"
         id="tspan4779">m/z</tspan></text>
    <text
       id="text4785"
       y="682.36218"
       x="235"
       style="font-style:normal;font-weight:normal;font-size:12px;line-height:125%;font-family:Sans;letter-spacing:0px;word-spacing:0px;fill:#000000;fill-opacity:1;stroke:none"
       xml:space="preserve"><tspan
         y="682.36218"
         x="235"
         id="tspan4787">0</tspan></text>
    <text
       id="text4789"
       y="682.36218"
       x="540"
       style="font-style:normal;font-weight:normal;font-size:12px;line-height:125%;font-family:Sans;letter-spacing:0px;word-spacing:0px;fill:#000000;fill-opacity:1;stroke:none"
       xml:space="preserve"><tspan
         y="682.36218"
         x="540"
         id="tspan4791">M</tspan></text>
    <path
       id="path4795"
       d="m 416.37028,601.09375 3.12517,45.12684 -72.54563,-45.91292"
       style="fill:none;stroke:#000000;stroke-width:1px;stroke-linecap:butt;stroke-linejoin:miter;stroke-opacity:1" />
    <path
       id="path4797"
       d="M 419.02751,645.75266 C 407.81124,642.0139 338.39894,600.7458 338.39894,600.7458"
       style="fill:none;stroke:#000000;stroke-width:1.01491261px;stroke-linecap:butt;stroke-linejoin:miter;stroke-opacity:1" />
    <text
       xml:space="preserve"
       style="font-style:normal;font-variant:normal;font-weight:normal;font-stretch:normal;font-size:16px;line-height:125%;font-family:Sans;-inkscape-font-specification:Sans;text-align:start;letter-spacing:0px;word-spacing:0px;writing-mode:lr-tb;text-anchor:start;fill:#000000;fill-opacity:1;stroke:none"
       x="299.04456"
       y="663.64392"
       id="text3039"><tspan
         id="tspan3041"
         x="299.04456"
         y="663.64392">I</tspan></text>
    <g
       id="g3103"
       ns0:preamble=""
       ns0:text="$\\nu$"
       transform="matrix(1.7485474,0,0,1.7485474,177.92989,447.29901)">
      <defs
         id="defs3105">
        <g
           id="g3107">
          <symbol
             id="textext-75542c86-0"
             overflow="visible"
             style="overflow:visible">
            <path
               id="path3110"
               d="m 2.234375,-4.296875 c 0,-0.015625 0,-0.109375 -0.125,-0.109375 -0.234375,0 -0.96875,0.078125 -1.21875,0.09375 -0.078125,0.015625 -0.1875,0.03125 -0.1875,0.203125 0,0.125 0.078125,0.125 0.234375,0.125 0.484375,0 0.5,0.0625 0.5,0.171875 0,0.0625 -0.125,0.53125 -0.1875,0.796875 L 0.640625,-0.5625 C 0.59375,-0.421875 0.53125,-0.140625 0.53125,-0.125 0.53125,-0.015625 0.625,0 0.6875,0 l 0.140625,0 c 0.703125,-0.125 1.78125,-0.515625 2.8125,-1.46875 1.3125,-1.21875 1.578125,-2.578125 1.578125,-2.671875 0,-0.171875 -0.109375,-0.265625 -0.28125,-0.265625 -0.078125,0 -0.3125,0.046875 -0.390625,0.328125 -0.640625,2.265625 -2.15625,3.375 -3.296875,3.75 z m 0,0"
               style="stroke:none" />
          </symbol>
        </g>
      </defs>
      <g
         id="textext-75542c86-1">
        <g
           id="g3113"
           style="fill:#000000;fill-opacity:1">
          <use
             id="use3115"
             y="134.765"
             x="223.43201"
             xlink:href="#textext-75542c86-0"
             width="744.09448"
             height="1052.3622" />
        </g>
      </g>
    </g>
    <path
       id="path4014"
       style="fill:none;stroke:#000000;stroke-width:0.5;stroke-linecap:round;stroke-linejoin:round;stroke-miterlimit:10;stroke-dasharray:1, 2;stroke-dashoffset:0;stroke-opacity:1"
       d="m 270,762.36218 290,0" />
    <path
       id="path4016"
       style="fill:none;stroke:#4f4f4f;stroke-width:1;stroke-linecap:round;stroke-linejoin:round;stroke-miterlimit:10;stroke-dasharray:none;stroke-opacity:1"
       d="m 265,762.36218 4.45712,0" />
    <path
       id="path4018"
       style="fill:none;stroke:#000000;stroke-width:0.5;stroke-linecap:round;stroke-linejoin:round;stroke-miterlimit:10;stroke-dasharray:1, 2;stroke-dashoffset:0;stroke-opacity:1"
       d="m 270,747.81672 290,0" />
    <path
       id="path4020"
       style="fill:none;stroke:#4f4f4f;stroke-width:1;stroke-linecap:round;stroke-linejoin:round;stroke-miterlimit:10;stroke-dasharray:none;stroke-opacity:1"
       d="m 265,747.81672 4.45712,0" />
    <path
       id="path4022"
       style="fill:none;stroke:#000000;stroke-width:0.5;stroke-linecap:round;stroke-linejoin:round;stroke-miterlimit:10;stroke-dasharray:1, 2;stroke-dashoffset:0;stroke-opacity:1"
       d="m 270,725.99854 290,0" />
    <path
       id="path4024"
       style="fill:none;stroke:#4f4f4f;stroke-width:1;stroke-linecap:round;stroke-linejoin:round;stroke-miterlimit:10;stroke-dasharray:none;stroke-opacity:1"
       d="m 265,725.99854 4.45712,0" />
    <path
       id="path4028"
       style="fill:none;stroke:#4f4f4f;stroke-width:1;stroke-linecap:round;stroke-linejoin:round;stroke-miterlimit:10;stroke-dasharray:none;stroke-opacity:1"
       d="m 430,805.60372 0,-3.24154" />
    <path
       id="path4030"
       style="fill:none;stroke:#4f4f4f;stroke-width:1;stroke-linecap:round;stroke-linejoin:round;stroke-miterlimit:10;stroke-dasharray:none;stroke-opacity:1"
       d="m 505,805.99854 0,-3.24154" />
    <path
       id="path4032"
       style="fill:none;stroke:#4f4f4f;stroke-width:1;stroke-linecap:round;stroke-linejoin:round;stroke-miterlimit:10;stroke-dasharray:none;stroke-opacity:1;marker-start:url(#Arrow1MstartZ);marker-end:url(#Arrow1Mendg)"
       d="m 270,714.56482 0,87.79736 290,0" />
    <path
       id="path4034"
       style="fill:none;stroke:#d40000;stroke-width:2;stroke-linecap:round;stroke-linejoin:round;stroke-miterlimit:10;stroke-dasharray:none;stroke-opacity:1"
       d="m 270,802.36218 105,-76.36364 0,76.36364 55,-40 0,40 75,-54.54546 0,54.54546 35,-25.45455" />
    <text
       xml:space="preserve"
       style="font-style:normal;font-variant:normal;font-weight:normal;font-stretch:normal;font-size:16px;line-height:125%;font-family:Sans;-inkscape-font-specification:Sans;text-align:start;letter-spacing:0px;word-spacing:0px;writing-mode:lr-tb;text-anchor:start;fill:#000000;fill-opacity:1;stroke:none"
       x="370"
       y="822.36218"
       id="text4102"><tspan
         id="tspan4104"
         x="370"
         y="822.36218">V</tspan></text>
    <text
       xml:space="preserve"
       style="font-style:normal;font-variant:normal;font-weight:normal;font-stretch:normal;font-size:16px;line-height:125%;font-family:Sans;-inkscape-font-specification:Sans;text-align:start;letter-spacing:0px;word-spacing:0px;writing-mode:lr-tb;text-anchor:start;fill:#000000;fill-opacity:1;stroke:none"
       x="425"
       y="822.36218"
       id="text4106"><tspan
         id="tspan4108"
         x="425"
         y="822.36218">A</tspan></text>
    <text
       id="text4110"
       y="822.36218"
       x="502"
       style="font-style:normal;font-variant:normal;font-weight:normal;font-stretch:normal;font-size:16px;line-height:125%;font-family:Sans;-inkscape-font-specification:Sans;text-align:start;letter-spacing:0px;word-spacing:0px;writing-mode:lr-tb;text-anchor:start;fill:#000000;fill-opacity:1;stroke:none"
       xml:space="preserve"><tspan
         y="822.36218"
         x="502"
         id="tspan4112">I</tspan></text>
    <text
       id="text4114"
       y="730.36218"
       x="262"
       style="font-style:normal;font-variant:normal;font-weight:normal;font-stretch:normal;font-size:14px;line-height:125%;font-family:Sans;-inkscape-font-specification:Sans;text-align:end;letter-spacing:0px;word-spacing:0px;writing-mode:lr-tb;text-anchor:end;fill:#000000;fill-opacity:1;stroke:none"
       xml:space="preserve"><tspan
         y="730.36218"
         x="262"
         id="tspan4116">m(V)</tspan></text>
    <text
       id="text4118"
       y="767.36218"
       x="262"
       style="font-style:normal;font-variant:normal;font-weight:normal;font-stretch:normal;font-size:14px;line-height:125%;font-family:Sans;-inkscape-font-specification:Sans;text-align:end;letter-spacing:0px;word-spacing:0px;writing-mode:lr-tb;text-anchor:end;fill:#000000;fill-opacity:1;stroke:none"
       xml:space="preserve"><tspan
         y="767.36218"
         x="262"
         id="tspan4120">m(A)</tspan></text>
    <text
       xml:space="preserve"
       style="font-style:normal;font-variant:normal;font-weight:normal;font-stretch:normal;font-size:14px;line-height:125%;font-family:Sans;-inkscape-font-specification:Sans;text-align:end;letter-spacing:0px;word-spacing:0px;writing-mode:lr-tb;text-anchor:end;fill:#000000;fill-opacity:1;stroke:none"
       x="262"
       y="752.36218"
       id="text4122"><tspan
         id="tspan4124"
         x="262"
         y="752.36218">m(I)</tspan></text>
    <g
       transform="matrix(1.7485474,0,0,1.7485474,161.09165,581.29811)"
       ns0:text="$\\nu$"
       ns0:preamble=""
       id="g5138">
      <defs
         id="defs5140">
        <g
           id="g5142">
          <symbol
             style="overflow:visible"
             overflow="visible"
             id="symbol5144">
            <path
               style="stroke:none"
               d="m 2.234375,-4.296875 c 0,-0.015625 0,-0.109375 -0.125,-0.109375 -0.234375,0 -0.96875,0.078125 -1.21875,0.09375 -0.078125,0.015625 -0.1875,0.03125 -0.1875,0.203125 0,0.125 0.078125,0.125 0.234375,0.125 0.484375,0 0.5,0.0625 0.5,0.171875 0,0.0625 -0.125,0.53125 -0.1875,0.796875 L 0.640625,-0.5625 C 0.59375,-0.421875 0.53125,-0.140625 0.53125,-0.125 0.53125,-0.015625 0.625,0 0.6875,0 l 0.140625,0 c 0.703125,-0.125 1.78125,-0.515625 2.8125,-1.46875 1.3125,-1.21875 1.578125,-2.578125 1.578125,-2.671875 0,-0.171875 -0.109375,-0.265625 -0.28125,-0.265625 -0.078125,0 -0.3125,0.046875 -0.390625,0.328125 -0.640625,2.265625 -2.15625,3.375 -3.296875,3.75 z m 0,0"
               id="path5146" />
          </symbol>
        </g>
      </defs>
      <g
         id="g5148">
        <g
           style="fill:#000000;fill-opacity:1"
           id="g5150">
          <use
             height="1052.3622"
             width="744.09448"
             xlink:href="#textext-75542c86-0"
             x="223.43201"
             y="134.765"
             id="use5152" />
        </g>
      </g>
    </g>
  </g>
</svg>
